<svg xmlns="http://www.w3.org/2000/svg" viewBox="0 0 288.39 182.31"><defs><style>.cls-1,.cls-9{fill:#1a1a18;}.cls-1,.cls-6,.cls-7,.cls-8{fill-rule:evenodd;}.cls-2{fill:#009ee3;}.cls-3{fill:#ffed00;}.cls-4{fill:#ef7c00;}.cls-5{fill:#e3000f;}.cls-6{fill:#2aa434;}.cls-7{fill:#1f6a2e;}.cls-8{fill:#233d48;}.cls-9{font-size:24.89px;font-family:Arial-BoldMT, Arial;font-weight:700;}</style></defs><g id="Layer_2" data-name="Layer 2"><g id="Layer_1-2" data-name="Layer 1"><path class="cls-1" d="M48.58,106.14C31.16,106.14,20,92.66,20,75.75s11.7-30.52,28.61-30.52c16.66,0,28.49,13.73,28.49,30.52a35.56,35.56,0,0,1-.47,5.8H96.7a50.6,50.6,0,0,0,.34-5.8,46.23,46.23,0,0,0-14.12-33.7,49.29,49.29,0,0,0-68.8,0A46,46,0,0,0,0,75.75,46.24,46.24,0,0,0,17.68,112.5a49.13,49.13,0,0,0,65.24-3A45.22,45.22,0,0,0,94.83,90.29h-21A27.38,27.38,0,0,1,48.58,106.14Z"/><path class="cls-1" d="M174.82,165c-10.59,0-18.88-5-23.75-12.69H129.61a46.65,46.65,0,0,0,14.31,19.05,49.13,49.13,0,0,0,65.24-3.05,47.29,47.29,0,0,0,0-67.41,49.29,49.29,0,0,0-68.8,0,46,46,0,0,0-14.12,33.71,49.12,49.12,0,0,0,.82,9h20.26a35.88,35.88,0,0,1-1.11-9c0-16.79,11.7-30.53,28.61-30.53,16.66,0,28.49,13.74,28.49,30.53S191.74,165,174.82,165Z"/><path class="cls-1" d="M136,128.55H105.3l8.4-10.43C126.92,101.59,136,90.78,136,76.92c0-15.65-10.71-27.34-30.53-26.56C89.82,51,78.81,61.8,78.81,80v1.53H97.13v-.38c0-8.78,3.28-14,9.57-14,7.38,0,10.56,4.19,10.56,11.44,0,5.85-4.33,12.72-12,22.64L73,143.56H136Z"/><circle class="cls-2" cx="195.91" cy="80.81" r="46.45" transform="translate(91.52 265.23) rotate(-82.9)"/><circle class="cls-3" cx="164.64" cy="36.2" r="30.81" transform="translate(55.5 164.67) rotate(-62.05)"/><circle class="cls-4" cx="225.12" cy="39.65" r="22.53" transform="translate(37.9 170.79) rotate(-45)"/><circle class="cls-5" cx="174.76" cy="134.62" r="24.26" transform="translate(-19.35 29.81) rotate(-9.24)"/><path class="cls-6" d="M195.4,34.36a46.47,46.47,0,0,0-43,30.13A30.84,30.84,0,0,0,195.46,36.2C195.46,35.58,195.44,35,195.4,34.36Z"/><path class="cls-7" d="M202.58,39.65a22.55,22.55,0,0,0,34.29,19.23,46.48,46.48,0,0,0-33.79-24A23,23,0,0,0,202.58,39.65Z"/><path class="cls-8" d="M197.87,127.22a24.28,24.28,0,0,0-35-13.76,46.3,46.3,0,0,0,33,13.8C196.57,127.26,197.22,127.24,197.87,127.22Z"/><text class="cls-9" transform="translate(252.45 21.35)">TM</text></g></g></svg>