<?xml version="1.0" encoding="UTF-8"?>
<!DOCTYPE svg PUBLIC "-//W3C//DTD SVG 1.1//EN" "http://www.w3.org/Graphics/SVG/1.1/DTD/svg11.dtd">
<!-- Creator: CorelDRAW -->
<svg xmlns="http://www.w3.org/2000/svg" xml:space="preserve" width="49.6148mm" height="18.542mm" version="1.1" style="shape-rendering:geometricPrecision; text-rendering:geometricPrecision; image-rendering:optimizeQuality; fill-rule:evenodd; clip-rule:evenodd"
viewBox="0 0 4960.64 1853.89"
 xmlns:xlink="http://www.w3.org/1999/xlink"
 xmlns:xodm="http://www.corel.com/coreldraw/odm/2003">
 <defs>
  <style type="text/css">
   <![CDATA[
    .fil2 {fill:white}
    .fil8 {fill:#757574}
    .fil3 {fill:#2B2B2A}
    .fil6 {fill:#F28B31}
    .fil4 {fill:#EA5437}
    .fil5 {fill:#2F84C5}
    .fil14 {fill:#0475BC}
    .fil1 {fill:#2484C6}
    .fil7 {fill:#EE303C}
    .fil0 {fill:#727272;fill-rule:nonzero}
    .fil10 {fill:#44C1F0;fill-rule:nonzero}
    .fil13 {fill:#0987C9;fill-rule:nonzero}
    .fil11 {fill:#2F5EA7;fill-rule:nonzero}
    .fil12 {fill:#243C77;fill-rule:nonzero}
    .fil9 {fill:black;fill-rule:nonzero}
    .fil16 {fill:#0475BC;fill-rule:nonzero}
    .fil15 {fill:#EF4123;fill-rule:nonzero}
   ]]>
  </style>
 </defs>
 <g id="Layer_x0020_1">
  <metadata id="CorelCorpID_0Corel-Layer"/>
  <g id="_105553237312768">
   <g>
    <g>
     <path class="fil0" d="M1961.38 1280l-12.87 37.21 25.74 0 -12.87 -37.21zm17.72 51.49l-35.42 0 -5.87 16.94 -18.73 0 31.98 -89.06 20.77 0 31.98 89.06 -18.86 0 -5.86 -16.94z"/>
     <path class="fil0" d="M2044.03 1258.99c0,-5.87 4.59,-10.45 11.09,-10.45 6.24,0 10.83,4.58 10.83,10.45 0,5.86 -4.59,10.45 -10.83,10.45 -6.5,0 -11.09,-4.59 -11.09,-10.45zm19.89 18.86l0 82.19c0,16.31 -8.8,22.05 -22.43,22.05l-7.91 0 0 -15.16 5.1 0c5.48,0 7.39,-2.05 7.39,-6.77l0 -82.31 17.85 0z"/>
     <path class="fil0" d="M2112.84 1334.03c9.42,0 18.47,-6.88 18.47,-20.9 0,-14.14 -8.79,-20.9 -18.22,-20.9 -9.43,0 -17.97,6.76 -17.97,20.9 0,14.02 8.16,20.9 17.72,20.9zm0 15.55c-20.4,0 -35.81,-14.27 -35.81,-36.44 0,-22.3 15.93,-36.44 36.32,-36.44 20.38,0 36.3,14.15 36.3,36.44 0,22.18 -16.31,36.44 -36.81,36.44z"/>
     <path class="fil0" d="M2162.76 1277.84l17.84 0 0 70.59 -17.84 0 0 -70.59zm-1.92 -18.86c0,-5.87 4.6,-10.45 10.96,-10.45 6.25,0 10.97,4.58 10.97,10.45 0,5.86 -4.72,10.44 -10.97,10.44 -6.36,0 -10.96,-4.58 -10.96,-10.44z"/>
     <path class="fil0" d="M2247.61 1309.45c0,-11.35 -6.25,-17.47 -15.67,-17.47 -9.69,0 -15.93,6.12 -15.93,17.47l0 38.98 -17.85 0 0 -70.59 17.85 0 0 8.79c4.58,-5.98 12.23,-9.81 21.28,-9.81 16.44,0 28.17,10.71 28.17,30.2l0 41.4 -17.85 0 0 -38.98z"/>
     <path class="fil0" d="M2285.17 1292.49l-8.41 0 0 -14.65 8.41 0 0 -17.46 17.97 0 0 17.46 15.81 0 0 14.65 -15.81 0 0 34.15c0,4.71 1.92,6.76 7.52,6.76l8.29 0 0 15.03 -11.22 0c-13.51,0 -22.56,-5.73 -22.56,-21.92l0 -34.02z"/>
     <polygon class="fil0" points="2373.71,1277.84 2391.56,1331.99 2409.39,1277.84 2428.37,1277.84 2402.25,1348.43 2380.59,1348.43 2354.6,1277.84 "/>
     <path class="fil0" d="M2452.05 1306.52l33.51 0c-0.27,-9.31 -7.65,-15.17 -16.83,-15.17 -8.54,0 -15.29,5.47 -16.69,15.17zm17.2 43.06c-20.52,0 -35.42,-14.27 -35.42,-36.44 0,-22.3 14.53,-36.44 35.42,-36.44 20.39,0 34.78,13.89 34.78,34.91 0,2.3 -0.12,4.59 -0.5,6.89l-51.62 0c0.9,10.44 8.04,16.31 16.96,16.31 7.65,0 11.86,-3.82 14.15,-8.54l19.23 0c-3.82,13 -15.54,23.32 -32.99,23.32z"/>
     <path class="fil0" d="M2566.46 1309.45c0,-11.35 -6.25,-17.47 -15.68,-17.47 -9.68,0 -15.93,6.12 -15.93,17.47l0 38.98 -17.85 0 0 -70.59 17.85 0 0 8.79c4.59,-5.98 12.24,-9.81 21.29,-9.81 16.43,0 28.17,10.71 28.17,30.2l0 41.4 -17.85 0 0 -38.98z"/>
     <path class="fil0" d="M2604.02 1292.49l-8.41 0 0 -14.65 8.41 0 0 -17.46 17.97 0 0 17.46 15.81 0 0 14.65 -15.81 0 0 34.15c0,4.71 1.92,6.76 7.51,6.76l8.3 0 0 15.03 -11.22 0c-13.51,0 -22.56,-5.73 -22.56,-21.92l0 -34.02z"/>
     <path class="fil0" d="M2717.27 1348.43l-17.96 0 0 -8.92c-4.46,5.99 -12.24,9.82 -21.02,9.82 -16.45,0 -28.3,-10.71 -28.3,-30.07l0 -41.41 17.84 0 0 38.86c0,11.35 6.25,17.46 15.68,17.46 9.69,0 15.8,-6.11 15.8,-17.46l0 -38.86 17.96 0 0 70.59z"/>
     <path class="fil0" d="M2752.68 1348.43l-17.85 0 0 -70.59 17.85 0 0 10.96c4.46,-7.26 11.84,-11.98 21.66,-11.98l0 18.74 -4.71 0c-10.59,0 -16.95,4.07 -16.95,17.71l0 35.16z"/>
     <path class="fil0" d="M2799.94 1306.52l33.51 0c-0.26,-9.31 -7.65,-15.17 -16.83,-15.17 -8.53,0 -15.29,5.47 -16.69,15.17zm17.21 43.06c-20.52,0 -35.42,-14.27 -35.42,-36.44 0,-22.3 14.52,-36.44 35.42,-36.44 20.39,0 34.77,13.89 34.77,34.91 0,2.3 -0.12,4.59 -0.5,6.89l-51.62 0c0.9,10.44 8.03,16.31 16.97,16.31 7.64,0 11.85,-3.82 14.14,-8.54l19.23 0c-3.82,13 -15.54,23.32 -32.98,23.32z"/>
     <path class="fil0" d="M2926.56 1334.03c9.43,0 18.48,-6.88 18.48,-20.9 0,-14.14 -8.8,-20.9 -18.23,-20.9 -9.42,0 -17.97,6.76 -17.97,20.9 0,14.02 8.16,20.9 17.72,20.9zm0 15.55c-20.39,0 -35.81,-14.27 -35.81,-36.44 0,-22.3 15.93,-36.44 36.32,-36.44 20.39,0 36.31,14.15 36.31,36.44 0,22.18 -16.32,36.44 -36.82,36.44z"/>
     <path class="fil0" d="M2978.4 1292.49l-8.03 0 0 -14.65 8.03 0 0 -3.57c0,-17.33 9.82,-25.36 29.68,-24.85l0 15.04c-8.67,-0.26 -11.59,2.54 -11.59,10.45l0 2.93 12.36 0 0 14.65 -12.36 0 0 55.94 -18.1 0 0 -55.94z"/>
    </g>
    <polygon class="fil1" points="1395.28,1851.98 2.14,1851.98 2.14,1577.88 932.21,1577.88 1163.87,1652.85 1395.28,1577.78 "/>
    <path class="fil2" d="M948.34 1750.17l0 0c-1.14,0.48 -3.84,0.72 -6.39,0.72 -6.84,0 -11.79,-2.77 -11.79,-8.34 0,-7.03 6.54,-8.57 18.18,-9.04l0 16.66zm-10.51 -62.02l-25.17 0 0 20.5 28.14 0c4.4,0.37 7.03,2.7 7.6,6.91l-0.06 -0.06 0 0.21c-24.13,1.57 -44.99,6.81 -44.99,27.57 0,17.88 12.97,27.4 39.43,27.4l32.75 0 0 -54.96c0,-17.86 -11.1,-27.56 -37.7,-27.56zm-720.23 62.02l0 0c-1.14,0.48 -3.89,0.72 -6.47,0.72 -6.86,0 -11.79,-2.77 -11.79,-8.34 0,-7.03 6.55,-8.57 18.26,-9.04l0 16.66zm-10.61 -62.02l0 0 -25.08 0 0 20.5 28.07 0c4.48,0.37 7.11,2.7 7.62,6.91l0 -0.06 0 0.21c-24.14,1.57 -45.01,6.81 -45.01,27.57 0,17.88 12.97,27.4 39.46,27.4l32.7 0 0 -54.96c0,-17.86 -11.09,-27.56 -37.76,-27.56zm443.36 82.52l0 0 29.83 0 0 -109.47 -29.83 0 0 109.47zm-92.37 -80.08l0 0 0 7.12 -8.56 0 0 21.42 8.56 0 0 51.54 28.44 0 0 -51.54 13.09 0 0 -21.42 -13.09 0 0 -7.12c0,-5.81 4.43,-7.92 10.46,-7.92 1.37,0 2.63,0.17 4.15,0.32l0 -22.13c-2.46,-0.46 -6.79,-0.73 -9.83,-0.73 -19.69,0 -33.21,9.12 -33.21,30.45zm-54.36 58.9l0 0c-6.36,0 -10.01,-5.96 -10.01,-19.49 0,-13.46 3.65,-19.46 10.01,-19.46 6.39,0 9.98,6 9.98,19.46 0,13.53 -3.59,19.49 -9.98,19.49zm0 -61.34l0 0c-24.6,0 -38.96,17.99 -38.96,42.12 0,24.23 14.37,42.35 38.96,42.35 24.64,0 38.96,-18.13 38.96,-42.35 0,-24.14 -14.33,-42.12 -38.96,-42.12zm360.25 -10.46l0 0 28.97 0 0 -17.18 -28.97 0 0 17.18zm0 92.97l0 0 28.97 0 0 -82.57 -28.97 0 0 82.57zm-137.54 -82.52l0 0 -35.05 0 0 82.52 28.94 0 0 -58.72c1.48,-0.6 4.14,-1.07 6.44,-1.07 5.25,0 8.42,2.99 8.42,8.25l0 51.54 28.93 0 0 -54.96c0,-17.86 -11.04,-27.56 -37.66,-27.56zm94.53 59.35l0 0c-1.05,0.57 -2.91,0.62 -4.92,0.62 -8.14,0 -12.64,-6.34 -12.64,-20.1 0,-11.66 4.34,-19.38 12.42,-19.38 2.03,0 4.34,0.44 5.14,1.04l0 37.81zm0 -58.99l0 0c-2.05,-0.68 -5.6,-1.13 -8.47,-1.13 -25.27,0 -38.02,15.93 -38.02,40.87 0,27.56 14.55,42.17 41.6,42.41l33.83 0 0 -109.8 -28.95 0 0 27.65zm-701.51 59.95l0 0c-2.66,0 -5.67,-0.57 -7.31,-0.96l0 -22.89 10.6 0c4.59,0 7.52,1.15 9.49,2.99 1.89,1.87 3.09,5.19 3.09,8.66 0,8.89 -4.52,12.2 -15.87,12.2zm-7.31 -65.14l0 0c1.9,-0.48 4.65,-0.65 7.31,-0.65 11.71,0 15.08,4.6 15.08,12.06 0,3.89 -1.21,6.86 -2.99,8.73 -1.28,1.31 -4.75,2.68 -8.8,2.68l-10.6 0 0 -22.82zm35.34 29.24l0 0 0 -0.38c8.66,-2.81 15.44,-10.11 15.44,-20.64 0,-17.75 -12.75,-30.96 -43.25,-30.96l-35.7 0 0 109.85 35.7 0c30.5,0 45.16,-11.96 45.16,-32.08 0,-13.23 -9.26,-22.52 -17.35,-25.79zm277.52 -22.44l0 0 -32.36 0 -17.76 33.59 -0.3 0 0 -62.85 -28.67 0 0 109.8 28.67 0 0 -39.68 0.3 0 20.29 39.68 31.9 0 -23.16 -43.48 21.09 -37.06zm-130.89 -1.88c-1.13,0 -34.95,-0.09 -34.95,-0.09l0 82.52 28.89 0 0 -58.72c1.51,-0.6 4.11,-1.07 6.43,-1.07 5.33,0 8.47,2.99 8.47,8.25l0 51.54 28.96 0 0 -54.96c0,-17.86 -11.02,-27.47 -37.78,-27.47z"/>
    <polygon class="fil3" points="1163.72,1722.27 1017.27,1851.98 1099.24,1674.53 932.22,1577.87 1123.08,1598.4 1163.72,1293.38 1204.46,1598.4 1395.28,1577.87 1228.27,1674.53 1310.18,1851.98 "/>
    <polygon class="fil4" points="1163.72,1718.49 1025.46,1840.98 1102.8,1673.47 945.01,1582.05 1125.51,1601.49 1163.72,1314.51 1201.96,1601.49 1382.45,1582.05 1224.67,1673.47 1302.1,1840.98 "/>
    <polygon class="fil5" points="1201.94,1601.48 1125.49,1601.48 1102.93,1673.49 1163.7,1718.48 1224.66,1673.49 "/>
    <path class="fil3" d="M1163.7 1703.13c-27.21,0 -49.36,-22.16 -49.36,-49.46 0,-27.15 22.16,-49.48 49.36,-49.48 27.18,0 49.28,22.34 49.28,49.48 0,27.31 -22.11,49.46 -49.28,49.46z"/>
    <path class="fil2" d="M1163.7 1700.29c-25.71,0 -46.54,-20.94 -46.54,-46.62 0,-25.68 20.84,-46.65 46.54,-46.65 25.67,0 46.52,20.98 46.52,46.65 0,25.69 -20.86,46.62 -46.52,46.62z"/>
    <path class="fil3" d="M1164.78 1624.59c0.22,0 0.27,0.15 0.22,0.29 -0.22,0 -0.33,0 -0.5,0.18 0,0.15 -0.1,0.39 -0.24,0.48 -0.25,0.08 -0.63,0.08 -0.83,0 -0.29,-0.09 -0.29,-0.33 -0.39,-0.48 -0.06,-0.18 -0.26,0 -0.39,-0.18 -0.08,0 -0.08,-0.14 0,-0.29 0.16,0 0.16,0.15 0.33,0.15 0.26,0.07 0.57,-0.32 0.86,0 0.17,-0.09 0.2,-0.15 0.42,-0.15 0.09,0 0.32,0.15 0.32,0.15 0.09,0 0.09,-0.15 0.2,-0.15zm-1.23 0.77l0 -0.15c0.08,0 0.16,0 0.29,0.05 0,0.19 -0.21,0.1 -0.29,0.1zm0.08 16.19c-0.49,0.06 -0.92,0.42 -1.09,0.54 -0.15,0.36 -0.17,0.75 -0.06,1.1 0.17,0.29 0.76,0.68 1.15,0.68 0.47,0 1.04,-0.32 1.25,-0.68 0.41,-0.92 -0.38,-1.72 -1.25,-1.64zm0.21 1.93c0.56,-0.47 0.51,-1.45 -0.13,-1.77l-0.01 0c-0.25,0.09 -0.46,0.38 -0.56,0.89 0,0.32 0.1,0.59 0.29,0.77 0.2,0.27 0.27,0.27 0.41,0.11zm16.26 16.73c-0.27,-0.23 -0.36,-0.5 -0.36,-0.5 -0.15,0.5 -0.29,0.5 -0.54,0.59 -0.17,0 -0.26,-0.09 -0.47,-0.09 0,0.48 0.86,0.4 1.01,0.09 0.26,0.24 0.89,0.39 0.95,-0.09 -0.3,0.09 -0.44,0.09 -0.59,0zm2.77 0c-0.26,0.09 -0.71,-0.23 -1.03,-0.23 -0.23,0.15 -0.56,0.32 -0.74,0.63 -0.11,0.14 -0.29,0.65 -0.29,1.06 0,0 0,0.12 0.08,0.18 0.21,0.05 0.1,-0.18 0.21,-0.18 0.74,0 1.22,0 1.57,-0.33 0.2,-0.15 0.29,-0.41 0.39,-0.73 0.14,-0.07 0.41,-0.4 0.23,-0.63l0 -0.09c-0.16,0.09 -0.23,0.32 -0.42,0.32zm-1.36 0.98c0.51,0.24 1.01,0 1.16,-0.44 -0.06,-0.06 -0.26,-0.14 -0.26,-0.14 0,0.32 -0.25,0.65 -0.57,0.58 0.18,-0.08 0.18,-0.44 0,-0.5 -0.23,0 -0.33,0.17 -0.41,0.5 0,0 -0.15,0 -0.15,0.07 0.15,0 0.23,-0.07 0.23,-0.07zm-3.57 -0.79c-0.55,-0.42 -1.1,0.14 -1.57,-0.1 -0.13,0 -0.21,-0.09 -0.21,-0.09 -0.06,0.4 0.08,0.65 0.52,0.72 0.16,0.68 0.9,0.86 1.78,0.86 0.1,0 0,0.11 0.16,0.11 0.11,0 0.23,-0.11 0.23,-0.23 0,-0.06 -0.12,-0.48 -0.23,-0.56 -0.06,-0.36 -0.48,-0.57 -0.68,-0.71zm-0.77 0.35c-0.1,0.59 0.55,0.86 1.06,0.59 0.09,-0.08 0,-0.08 -0.09,-0.15 -0.26,0.15 -0.75,0.15 -0.85,-0.08 0.1,0.08 0.21,0.08 0.32,0.08 0.27,-0.26 -0.11,-0.5 -0.44,-0.44zm1.86 6.83c0.23,-0.1 0.71,-0.1 0.97,0 0.1,0.32 -0.26,0.52 -0.5,0.47 -0.24,0 -0.47,-0.23 -0.47,-0.47zm-6.22 10.73c0.24,-0.17 0.56,-0.33 0.83,-0.39 -0.44,-0.49 -1.8,-0.41 -1.62,0.47 0,0.33 0.83,0.49 0.79,-0.08zm2.67 7.6c0.71,-0.16 1.91,-0.24 2.13,0.41 0.76,0 1.54,0 1.98,0.47 0.06,0.25 -0.09,0.42 -0.33,0.6 -0.32,0.2 -0.8,0.44 -1.38,0.2 -0.19,0 -0.51,-0.03 -0.71,-0.03 -0.49,-0.17 -1.07,0 -1.51,0 -0.6,-0.17 -1.67,-0.11 -2.02,-0.44 -0.18,-0.08 -0.24,-0.33 -0.05,-0.48 -0.3,-0.09 -0.78,-0.09 -0.98,-0.32 -0.59,-0.5 0.59,-0.65 0.98,-0.65 0.26,0.08 0.67,0.08 0.94,0.15 0.15,0.09 0.27,0.16 0.44,0.16 0.09,0.1 0.3,-0.07 0.51,-0.07zm21.05 -6.56c-0.18,-0.05 -0.33,-0.05 -0.56,-0.05 -0.42,-0.15 -0.98,-0.15 -1.3,-0.15 -0.49,0 -0.89,0 -1.28,-0.27 -0.41,0 -0.89,0 -1.22,-0.16 -0.32,0 -0.65,-0.33 -0.91,-0.5 -1.18,-0.53 -2.35,-1.13 -3.61,-1.53 0.23,-0.48 0.59,-0.81 0.74,-1.23 0.29,-0.52 0.29,-1.12 0.47,-1.84 0.09,-0.41 0.21,-0.95 0.24,-1.27 0.08,-0.83 0,-1.72 -0.06,-2.43 -0.29,-2.44 0.03,-4.87 -0.13,-7.1 -0.05,-0.97 -0.23,-2.07 -0.57,-2.93 -0.28,-0.8 -0.52,-1.69 -0.84,-2.59 -0.1,-0.34 -0.29,-0.55 -0.42,-0.8 -0.17,-0.16 -0.56,-0.42 -0.61,-0.58l0 -0.36c-0.1,-0.27 -0.5,-0.45 -0.77,-0.6 -0.22,-0.08 -0.3,-0.32 -0.45,-0.45 -0.18,-0.05 -0.42,-0.08 -0.51,-0.26 -0.23,0 -0.43,0 -0.56,-0.08 -0.18,0 -0.18,-0.19 -0.32,-0.28 -0.48,-0.31 -0.99,-0.23 -1.7,-0.31 -0.03,0 -0.14,-0.2 -0.14,-0.2 -0.92,-0.29 -2.19,0 -3.08,-0.29 -1,-0.23 -1.81,-0.74 -2.67,-1.06 0.1,-0.39 -0.22,-0.72 -0.55,-0.8 0.03,-0.24 0.2,-0.66 -0.13,-0.8l-0.32 0c-0.47,-1.54 -0.74,-3.27 -1.12,-4.7 -0.23,-0.73 -0.56,-1.51 -0.69,-2.25 -0.17,-0.47 -0.17,-0.71 -0.17,-1.33 -0.09,-0.35 -0.15,-0.77 -0.24,-1.28 -0.09,-0.53 -0.09,-1.13 -0.09,-1.83 0.18,-0.27 0.68,-0.66 0.68,-1.13 0,0 0,-0.09 -0.05,-0.27 -0.13,-0.21 -0.3,-0.51 -0.42,-0.77 -0.42,-0.92 -0.5,-2.04 -0.78,-2.99 -0.17,-1.3 -0.37,-2.29 -0.71,-3.24 -0.11,-0.32 -0.3,-0.56 -0.35,-0.98 -0.18,-0.74 -0.44,-1.07 -1.09,-1.07 0,-0.19 -0.19,-0.39 -0.34,-0.62 -0.01,-0.18 -0.32,-0.51 -0.32,-0.67 -0.08,-0.3 0.07,-0.61 -0.08,-0.78 -0.08,-0.26 -0.22,-0.33 -0.22,-0.45l0 -0.35c0,-0.18 -0.17,-0.18 -0.23,-0.36 0.23,-0.48 -0.03,-0.89 -0.29,-1 0.26,-0.45 0,-0.78 -0.05,-0.84 0.13,-0.51 -0.07,-0.8 -0.25,-1.07 0.18,-0.21 0,-0.61 -0.24,-0.9 0.24,-0.45 -0.08,-0.77 -0.08,-1.12l0 -0.15c0,-0.34 -0.12,-0.34 -0.18,-0.57 0,-0.07 0,-0.16 -0.09,-0.31 -0.06,-0.18 -0.1,-0.43 -0.16,-0.49 -0.13,-0.96 -0.2,-1.47 -0.85,-2.18 -0.89,-0.95 -2.11,-1.22 -3.15,-1.22 -1.06,-0.18 -2.21,0.33 -3.09,0.86 -0.61,0.51 -0.95,1.07 -1.16,1.64 0,0.17 -0.18,0.26 -0.18,0.26 -0.15,0.44 -0.45,0.95 -0.45,1.44 -0.05,0.5 -0.2,0.9 -0.35,1.13 -0.04,0.1 0,0.33 -0.04,0.55 0,0 -0.07,0.29 -0.07,0.35l0 0.32c-0.36,0.24 -0.16,0.66 -0.16,0.95 -0.32,0.18 -0.32,0.67 0,0.84 -0.41,0.32 -0.41,0.96 -0.2,1.21 0,0.3 -0.12,0.39 -0.12,0.48 0,0.18 0.12,0.33 0.12,0.53 -0.06,0.12 -0.21,0.19 -0.31,0.45 -0.08,0.23 0,0.38 0.19,0.62 -0.27,0.27 -0.39,0.56 -0.3,1.06 0,0 -0.15,0.1 -0.27,0.31l0 0.23c-0.08,0.27 -0.41,0.45 -0.52,0.59 -0.1,0.18 -0.22,0.33 -0.27,0.57 -0.42,0.56 -0.66,1.22 -0.89,2.05 -0.56,2.31 -1.07,5.01 -1.72,7.35 -0.06,0.44 -0.12,0.95 -0.44,1.27 -1.16,-0.32 -2.64,-0.64 -4.12,-0.92 0,-0.19 0,-0.44 -0.09,-0.61 -0.29,-0.18 -0.58,0.09 -0.83,0.17 -0.11,-0.44 -0.72,-0.5 -0.95,-0.28 -0.16,-0.16 -0.4,-0.16 -0.53,-0.32 -0.21,-0.7 -0.44,-1.11 -0.94,-1.59 -0.2,-0.06 -0.48,-0.23 -0.87,-0.59 -0.36,-0.07 -0.74,-0.24 -1.2,-0.48 -0.27,-0.06 -0.83,-0.47 -0.98,-0.62 -0.08,-0.23 -0.08,-0.23 -0.08,-0.41 -0.45,-1.52 -0.81,-3.06 -1.25,-4.69 -0.07,-0.15 -0.13,-0.57 -0.13,-0.72 0,-0.09 0.06,-0.18 0.13,-0.26 0,-0.24 -0.07,-0.51 -0.13,-0.66 -0.13,-0.62 -0.32,-1.18 -0.42,-1.84 0.75,-0.06 1.32,-0.49 1.73,-0.8 0.24,-0.41 0.57,-0.74 0.47,-1.48 -0.17,-1.69 -1.53,-2.97 -1.65,-4.83 -0.07,-0.42 0.12,-0.73 -0.07,-1.11 -0.19,0 -0.19,0.31 -0.38,0.44 -0.42,1.46 0.32,2.87 0.57,4.04 0.11,0.57 0,1.22 -0.38,1.58 -0.19,0.15 -0.51,0.47 -0.72,0.29 -0.3,-0.46 -0.36,-1.3 -0.3,-1.87 -0.11,-0.29 0.3,-0.62 0.18,-0.95 0,-0.22 -0.26,-0.38 -0.35,-0.51 -0.22,-0.23 -0.33,-0.38 -0.4,-0.61 -0.47,-0.66 -0.94,-1.54 -1.27,-2.28 -0.11,-0.29 -0.21,-0.65 -0.53,-0.8 -0.18,0.24 -0.02,0.41 0,0.59 0,0.52 0.12,1.1 0.12,1.83 0.08,0.5 0,1.4 -0.12,1.96 0,0.06 -0.08,0.21 -0.02,0.48 0.02,0.06 0.14,0.24 0.14,0.24 0.17,0.05 0.2,0.23 0.35,0.5 0.39,0.45 0.66,1.13 0.86,1.75 -0.08,0.05 -0.2,0.24 -0.2,0.41 -0.89,0.45 -1.45,-0.26 -1.54,-1.15 -0.06,-0.74 0,-1.46 -0.13,-2.23 -0.1,-0.92 -0.4,-1.63 -0.84,-2.3 -0.18,-0.06 -0.37,-0.3 -0.67,-0.23 0.1,0.23 0.16,0.5 0.3,0.72 0.51,1.31 0.25,3.57 0.27,5.19 0.1,0.71 0.36,1.28 0.84,1.52 0.64,0.42 1.5,0.16 2.3,0 0.21,0.56 0.32,1.45 0.6,2.11 0,0.17 0,0.36 0.03,0.41 0.04,0 0.26,0 0.26,0.11 0.17,0.31 0.17,0.61 0.23,0.87 0.42,1.84 0.87,3.72 1.4,5.46 -0.09,0.18 -0.28,0.18 -0.3,0.26 -0.11,0.33 -0.03,0.6 -0.03,0.96 0,0.11 -0.08,0.18 0,0.32 0,0.18 0.15,0.27 0.21,0.42 0.03,0.32 0,0.71 0.36,0.87 0,0.44 0.09,0.72 0.32,0.88 0.09,0.29 0.39,0.29 0.39,0.44 0.06,0.09 0.27,0.59 0.27,0.8 0.06,0.33 0.06,0.75 0.25,0.98 0.44,1.84 0.9,3.64 1.25,5.59 1.63,6.04 3.14,12.27 4.63,18.4 0.22,1.23 0.64,2.36 0.78,3.64 -0.23,0.17 -0.56,0.17 -0.76,0.26 -0.45,0.14 -0.85,0.42 -1.31,0.56 -0.71,0.3 -1.39,0.66 -1.92,1.04 -0.09,0 -0.29,0.11 -0.39,0.18 -1.6,1.16 -2.8,2.87 -3.75,4.68 -0.18,0.31 -0.33,0.48 -0.53,0.71 -0.07,0.27 -0.07,0.34 -0.13,0.6 -0.09,0.07 -0.13,0.23 -0.32,0.45 -0.24,0.68 -0.48,1.38 -0.65,2.26 -0.18,1.24 0,2.21 0.33,3.1 -0.51,-0.09 -1.55,0.15 -1.55,0.57 0,0.23 0.33,0.54 0.33,0.71 -0.15,0 -0.41,0.09 -0.72,0 -0.52,0 -1.35,-0.17 -1.88,0.09 -0.18,0 -0.44,0.24 -0.39,0.54 0.09,0.34 0.98,0.5 1.33,0.5 0.24,0 0.32,-0.09 0.53,-0.16 0.33,0 0.72,0 1.13,0.16 0.09,0.07 0.09,0.17 0.21,0.17l0.39 0c0,0 0.11,0.16 0.29,0.16l1.1 0c0,0 -0.13,0.08 -0.26,0.31 0.04,0.09 0,0.24 0,0.43 0.19,0.29 0.49,0.47 0.87,0.58 0.87,0.15 1.51,-0.17 2.32,-0.11 0.51,0.11 1.06,0.38 1.77,0.14 -0.24,0.42 -0.42,0.92 -0.12,1.31 0.09,0.15 0.3,0.15 0.44,0.42l1.86 0c0.39,0 1.13,-0.42 1.55,0 0.16,0.06 0.19,0.24 0.33,0.41 0,0 0.24,0.18 0.24,0.22 0.05,0.11 0.2,0.29 0.2,0.29 0.29,0.12 1.07,0.26 1.19,0.53 0.11,0.05 -0.03,0.05 0.11,0.05 -0.11,0.72 0,1.57 0.28,1.94 0.2,0.24 0.46,0.35 0.5,0.67 0.37,0.1 0.76,0.48 1.18,0.72 0.24,0.09 0.47,0.18 0.89,0.33 0.24,0.14 0.38,0.42 0.65,0.66l0.1 0c-0.19,0 -0.19,-0.24 -0.19,-0.4 0,-0.41 0.19,-0.73 0.32,-1.06 0.39,-2.26 -0.88,-3.89 -1.87,-4.92 -0.14,-0.1 -0.32,-0.25 -0.46,-0.33 0.59,-0.18 0.88,-0.42 1.39,-0.84 0.15,0.92 0.3,1.79 0.44,2.65 0.1,0.26 0.15,0.58 0.37,0.68 0.22,0.09 0.61,-0.1 0.79,-0.23 0.15,-0.27 -0.09,-0.78 -0.27,-1.23 -0.15,-0.56 -0.18,-0.95 -0.3,-1.63 -0.09,-0.24 -0.32,-0.62 -0.16,-0.79 0.07,-0.25 0.88,-0.4 1.35,-0.25l1.06 0c0.27,0 0.62,-0.24 1.07,-0.15 0.22,0.15 0.39,0.4 0.53,0.4 0.63,0.23 1.45,0.17 2.14,0 0.38,-0.06 0.7,-0.16 0.94,-0.25 0.54,-0.15 0.95,-0.15 1.28,-0.47 0.33,0 0.88,-0.08 1.06,-0.41 0,-0.16 -0.29,-0.09 -0.18,-0.24 0.24,-0.09 0.47,-0.26 0.75,-0.26 0.47,0 0.82,0.17 1.21,0.17 0.24,0.09 0.5,-0.1 0.7,-0.1 0.51,0.1 1,0.27 1.48,0.19 0.23,0 0.46,-0.19 0.81,-0.19 0.28,0 0.67,0.19 0.98,0.19 0.43,0 0.94,0 1.41,-0.09 0.66,-0.1 1.25,-0.17 1.76,-0.47 0.11,0 0.29,-0.24 0.44,-0.24 0.12,0 0.38,0 0.68,0.18l0.78 0c0.19,0 0.67,0 0.67,-0.18 0.03,-0.15 -0.17,-0.51 -0.32,-0.57 -0.59,-0.23 -1.81,-0.23 -2.55,-0.17 -0.21,0 -0.48,0.08 -0.65,0 0.09,-0.24 0.35,-0.24 0.44,-0.31 0.21,0 0.21,-0.17 0.35,-0.22 0.63,0.14 1.4,0.14 2.17,0 0.39,0.22 0.86,0.29 1.34,0.29 0.11,0.18 0,0.32 0.11,0.32 0.27,0.4 0.76,0.4 1.33,0.4 1.36,0 2.9,0.26 4.19,0.44 0.49,0.43 1.67,0.23 2.35,0.62 -0.17,0 -0.23,0.08 -0.5,0.24 -0.98,-0.24 -2.15,-0.16 -2.96,0.07 -0.32,0.26 -0.51,0.57 -0.18,0.81 0.29,0.25 0.99,0.42 1.54,0.42 0.62,0 1.22,0.06 1.78,0 0.17,0 0.56,-0.17 0.71,-0.23 0.1,-0.19 0.17,-0.34 0.17,-0.43 0.57,0 2.2,0 2.23,-0.57 0.07,-0.23 -0.12,-0.23 -0.21,-0.31 0.28,0 0.33,-0.39 0.62,-0.44 0.07,-0.12 0.27,0 0.42,-0.12 0.18,0 0.3,0 0.5,-0.06 0.25,-0.18 0.33,-0.27 0.48,-0.51 0.33,0 0.73,0.07 1.03,-0.05 0.32,-0.19 0.6,-0.42 0.98,-0.6 0.41,-0.07 0.74,0 1.12,0.18 0.33,0 0.8,0.14 1.15,0.14 0.36,0 0.95,0 1.28,-0.14 0.15,-0.18 0.33,-0.33 0.56,-0.33 0.33,-0.14 0.77,-0.14 1.08,-0.51l0 -0.23c0.67,-0.3 1.04,-0.8 0.94,-1.84 -0.13,-0.89 -0.8,-1.64 -1.69,-1.81zm-57.52 -52.65c0.12,0 0.32,0 0.32,-0.17 -0.08,-0.26 -0.35,0 -0.35,0l-0.66 0c-0.34,0 -0.86,-0.33 -1,-0.65 -0.18,-0.33 -0.18,-0.66 -0.24,-1.06 -0.02,-0.58 0.06,-1.35 -0.02,-1.85 -0.18,1.04 -0.3,2.4 0.17,3.11 0.18,0.19 0.42,0.45 0.59,0.5 0.3,0.12 0.83,0.12 1.19,0.12zm0.5 -2.33c-0.38,-0.68 -0.68,-1.25 -1.04,-1.75 0.06,-0.37 0.22,-1.22 0.31,-1.83 0.08,0 0.05,0.06 0.05,0.06 0.15,0.66 0.5,1.22 0.11,1.46 0.13,0.71 0.48,1.38 0.72,2.29 -0.15,-0.12 -0.15,-0.17 -0.15,-0.23zm0.15 1.18c0,-0.09 0.21,-0.18 0.32,-0.28l-0.11 0.19c0.03,0.42 0.03,0.81 0.42,1.24 -0.22,0 -0.22,0 -0.39,0.06 0,-0.23 -0.31,-1.03 -0.24,-1.21zm0.79 3.2c-0.14,-0.54 -0.16,-1.28 -0.25,-1.84 0.09,0.36 0.17,0.8 0.35,1.07 0,0.54 0.17,0.95 0.12,1.36 -0.12,-0.14 -0.22,-0.41 -0.22,-0.59zm0.51 -3.29c0.24,-0.24 0.56,-0.39 0.81,-0.57 -0.19,0.33 -0.38,0.57 -0.67,0.57l-0.14 0zm47.19 49.11c0.09,-0.23 0.09,-0.59 0,-1.1 0,-0.61 -0.42,-1.23 -0.42,-2l0 -1.23c0.06,-0.41 0.09,-1.09 0,-1.68 0,-0.46 -0.23,-1.31 -0.46,-1.41 -0.12,-0.07 -0.19,0.18 -0.24,0.25 -0.1,0.08 -0.27,0.08 -0.27,0.08 -0.24,0.27 -0.29,0.57 -0.26,0.9 0,0.22 0.2,0.41 0.2,0.65 0,0.24 -0.23,0.57 -0.23,0.8 0,0.09 0.14,0.23 0.23,0.51l0 0.7c-0.18,0.3 -0.23,0.48 -0.23,0.81 -0.19,0.55 0.03,1.13 -0.19,1.62 -0.17,0.33 -0.41,0.51 -0.47,0.8 0,0.19 0.16,0.3 0.16,0.74 0.4,-0.44 0.79,-0.88 0.79,-1.7 0,-0.64 -0.15,-1.38 0.2,-1.79 -0.2,1.15 0.21,1.79 0.07,2.61 0,0.21 -0.27,0.62 -0.27,0.81 -0.06,0.26 -0.29,0.5 -0.39,0.52 -0.26,0.27 -0.5,0.27 -0.65,0.51 -0.08,0.09 -0.08,0.41 -0.08,0.41 0,0.15 -0.16,0.48 -0.31,0.64 -0.35,0.41 -0.82,0.67 -1.02,1.12 -0.04,0.08 -0.04,0.17 -0.1,0.25 -0.03,0.19 -0.21,0.26 -0.35,0.33 -0.1,0.1 -0.33,0.1 -0.33,0.16 0.23,0.27 0.33,0 0.47,0 0.18,0 0.44,-0.23 0.6,-0.49 0.23,-0.17 0.38,-0.41 0.65,-0.47 0.72,-0.56 1.51,-1.06 2.02,-1.6 0.23,-0.44 0.46,-0.86 0.61,-1.12 0.15,-0.19 0.27,-0.35 0.27,-0.63zm-7.05 -1.36c0,0.59 0.33,0.92 0.33,1.36 0.08,0.89 -0.23,1.75 -0.62,2.19 -0.45,0.6 -1.16,0.67 -1.22,1.46 0.36,0 0.51,0.09 0.77,0.09 0.09,-0.09 0.27,-0.09 0.45,-0.09 0.29,-0.24 0.47,-0.24 0.8,-0.3 0.32,-0.23 0.41,-0.23 0.55,-0.56 0.25,-0.34 0.36,-0.6 0.45,-0.89 0.06,-0.26 0.13,-0.74 0.13,-1.01 0,-0.26 -0.13,-0.61 -0.22,-0.95 -0.11,-0.24 -0.14,-0.53 -0.26,-0.71 -0.13,-0.33 -0.24,-0.41 -0.33,-0.59 -0.17,-0.23 -0.32,-0.61 -0.23,-0.86 0.06,-0.42 0.46,-0.83 0.62,-1.21 0.06,-0.41 -0.06,-0.66 -0.19,-0.9 -0.08,-0.32 -0.11,-0.41 -0.2,-0.64 -0.17,-0.45 -0.73,-1 -0.73,-1.5 0.08,-0.05 0.08,-0.2 0.23,-0.2 0.27,0 0.18,0.2 0.33,0.48 0.08,0.18 0.17,0.22 0.26,0.22 0.06,0.36 0.11,0.55 0.14,0.9 0.22,0.42 0.51,0.98 0.45,1.81 -0.09,0.39 -0.56,0.77 -0.56,1.29 0,0.26 0.27,0.61 0.47,0.71 0.31,-0.71 0.86,-1.38 0.77,-2.35 -0.09,-0.23 -0.09,-0.48 -0.09,-0.62 -0.14,-0.68 -0.68,-1.07 -0.79,-1.78 -0.03,-0.81 0.42,-1.31 0.46,-2.05 -0.26,0.57 -0.49,1.07 -1.11,1.31 -0.15,-0.24 -0.33,-0.42 -0.66,-0.42 -0.11,-0.07 -0.21,0 -0.21,0 -0.2,-0.07 -0.53,-0.25 -0.73,-0.25 -0.16,0 -0.33,0.1 -0.51,0.18 -0.15,0 -0.45,-0.18 -0.62,-0.18 -0.18,0 -0.47,0.25 -0.57,0.33 -0.32,0 -0.58,0 -0.74,0.1 0.22,0.24 0.16,0.85 0.42,1.02 0.18,0.19 0.59,0 0.89,0.19 0,0.24 0.12,0.36 0.12,0.36 -0.02,0.51 0.3,0.77 0.3,1.33 0.05,0.15 0.14,0.3 0.14,0.48 0,0.26 -0.14,0.56 -0.23,0.89 0,0.08 0.09,0.39 0.09,0.65 -0.09,0.17 -0.3,0.36 -0.3,0.56 -0.02,0.15 0,0.33 0.05,0.41 0,0.15 0.06,0.33 0.25,0.39 -0.09,-0.88 0.5,-1.62 0.38,-2.39 0,-0.25 -0.09,-0.51 -0.18,-0.84 -0.06,-0.29 -0.06,-0.57 -0.15,-0.8 -0.05,-0.17 -0.24,-0.33 -0.24,-0.56 -0.06,-0.12 0,-0.12 0.1,-0.31 0.23,-0.17 0.64,0 0.89,-0.17 0.05,0.24 0.14,0.36 0.14,0.48 0,0.33 -0.23,0.56 -0.29,0.79 -0.1,0.57 0.29,1.25 0.2,1.87 0,0.42 -0.05,0.74 -0.2,1.13 -0.1,0.41 -0.27,0.74 -0.27,1.07 0,0.72 0.17,1.6 0,2.25 -0.09,0.48 -0.38,0.81 -0.8,1.05 -0.09,0.26 -0.47,0.26 -0.47,0.49 0.64,0.3 0.7,-0.23 0.94,-0.56 0.24,-0.34 0.5,-0.34 0.75,-0.6 0.35,-0.7 1.03,-1.32 0.74,-2.49 -0.1,-0.22 -0.36,-0.47 -0.36,-0.8 -0.03,-0.41 0.18,-0.8 0.18,-1.07 0,-0.16 -0.12,-0.47 -0.12,-0.55 0,-0.38 0.3,-0.89 0.2,-1.37 -0.08,-0.24 -0.29,-0.42 -0.29,-0.65 -0.06,0 0,-0.56 0,-0.56 0.03,-0.12 0.09,-0.71 0.29,-0.71 0.21,0 0.31,0.84 0.31,0.94 0,0.33 -0.1,0.56 0,0.74 0,0.24 0.23,0.54 0.08,0.8 0,0.43 -0.18,0.59 -0.18,0.89 -0.11,0.31 0.1,0.57 0.1,0.93 0,0 -0.1,0.2 -0.1,0.35zm-5.8 1.64c0.42,0.59 0.65,1.62 0.18,2.17 0.24,0.34 0.33,0.57 0.62,0.67 0.45,-0.93 0.36,-1.9 0,-2.49 -0.05,-0.63 -0.38,-0.74 -0.44,-1.07 -0.18,-0.66 0.15,-1.15 0.15,-1.63 0.11,-0.42 0.11,-0.65 0.01,-0.98 -0.07,-0.62 -0.55,-1.1 -0.76,-1.69 -0.09,-0.33 -0.24,-0.65 -0.33,-0.8 -0.14,-0.75 0,-1.45 0.19,-2.11 0.12,-0.29 0.35,-0.65 0.38,-1.03 0.18,-0.66 0,-1.41 -0.06,-1.78 -0.09,-0.27 -0.18,-0.57 -0.27,-0.51 -0.15,0.24 -0.38,0.68 -0.44,1.04 -0.18,0.5 -0.09,1.13 -0.18,1.87 0,0.64 -0.2,1.31 -0.3,1.87 -0.11,0.77 0.21,1.12 0.48,1.68 0.15,0.36 0.44,0.67 0.53,0.98 0.21,0.81 -0.02,1.46 -0.24,2.17 -0.14,0.65 0,1.13 0.15,1.54 0.07,0.19 0.09,0.45 0.3,0.59 0.12,-0.14 0,-0.33 0.03,-0.49zm-4.63 -8.22c0,0.85 -0.43,1.42 -0.43,2.16 0,1.04 0.43,1.84 0.91,2.35 0.48,0.56 1.24,0.71 1.7,1.1 0.2,0.26 0.35,0.62 0.52,0.82 0.09,0.25 0.09,0.41 0.27,0.56 0,-0.23 0.15,-0.56 0.06,-0.76 -0.06,-0.26 -0.24,-0.51 -0.24,-0.78 0,-0.38 0.18,-0.74 -0.17,-1.04 -0.71,-0.14 -1.45,-0.41 -1.78,-1.03 -0.53,-0.86 -0.29,-2.35 -0.71,-3.5l-0.13 0 0 0.12zm-0.62 1.19c-0.11,0 0,-0.24 0,-0.34 0.1,-0.33 0.19,-0.69 0.19,-1.03 0.04,-0.33 0.04,-0.5 0.24,-0.68 -0.1,0.41 -0.1,1.02 -0.24,1.38 0,0.25 0,0.51 -0.19,0.67zm-1.59 -26.35c0.08,0.24 0.08,0.5 0.08,0.62l0 0.75 -0.08 0 0 0.53c2.43,3.79 2.92,9.67 2.87,15.95 0.05,-0.23 0.08,-0.4 0.24,-0.56 0.35,-1.04 0.82,-1.8 1.48,-2.68 0.15,-0.23 0.41,-0.52 0.65,-0.79 0.15,-0.18 0.46,-0.41 0.46,-0.41 0.1,-0.37 -0.17,-0.63 -0.22,-0.79 -0.09,-0.28 -0.15,-0.57 -0.3,-0.75 -0.44,0 -1.06,-0.25 -1.13,-0.54 -0.12,-0.26 0.1,-0.45 0.16,-0.59 -0.09,-0.18 -0.28,-0.24 -0.36,-0.38 0,-0.28 0.2,-0.52 0.27,-0.66 -0.74,-1.54 -1.46,-3.08 -2.1,-4.69 -0.2,-0.59 -0.54,-1.96 -0.59,-2.61 -0.17,-0.32 -0.24,-1.1 -0.31,-1.55 -0.08,-0.23 -0.16,-0.52 -0.2,-0.85 0,0 -0.03,-0.09 -0.1,-0.97l-0.09 0c-0.35,0 -0.55,0.55 -0.87,0.64 0.14,0.24 0.14,0.24 0.14,0.33zm1.54 -1.37c0.05,-0.17 0.24,-0.29 0.48,-0.29 0.5,-0.07 1.2,-0.21 1.77,-0.35 0.06,0.14 0.14,0.19 0.14,0.28 -0.37,0.19 -0.79,0.19 -1.24,0.36 -0.44,0 -0.77,0.15 -1.1,0.15 0,-0.09 -0.05,-0.09 -0.05,-0.15zm10 16.06c-0.55,0.18 -1.32,-0.24 -2.03,-0.31 -0.36,0 -0.8,-0.12 -1.17,0 -0.99,0.07 -1.65,0.65 -2,1.78 0.44,-0.33 0.79,-0.8 1.36,-1.04 0.59,-0.25 1.56,-0.43 2.3,-0.09 0.27,0.09 0.67,0.33 0.99,0.33 0.5,0.13 0.71,-0.08 0.91,-0.33 0.18,-0.16 0.63,-0.42 0.45,-0.65 -0.42,-0.12 -0.51,0.23 -0.81,0.31zm-0.55 -0.31c0.2,0.15 0.85,-0.29 0.38,-0.29 -0.09,0.12 -0.38,0 -0.38,0.29zm5.8 1.34c-0.09,0.11 -0.27,0.18 -0.18,0.44 0,0.09 0.18,0.09 0.18,0.23 0,0 -0.45,0.4 -0.65,0.4 -0.51,0.15 -1.1,0 -1.31,-0.21 0.8,-0.19 1.31,-0.42 1.96,-0.86zm0.08 -0.14c-0.08,-0.09 0.15,-0.09 0.15,-0.13 0.33,-0.33 0.77,0.04 0.8,0.27 0.33,1.01 -0.41,1.98 -1.12,2.13 -0.33,0 -0.72,0 -0.77,-0.4l0.21 0c0.56,0 1.04,-0.39 1.37,-0.66 0.14,-0.54 -0.1,-1.21 -0.64,-1.21zm1.75 8.97c0,0.25 -0.15,0.67 -0.32,0.77 -0.15,0.46 -0.48,0.61 -0.65,1.03 -0.14,0.46 0.26,0.97 0.17,1.45 -0.17,0 -0.31,-0.12 -0.31,-0.24 -0.1,-0.24 -0.16,-0.43 -0.25,-0.47 -0.24,-0.74 0.32,-1.77 0.09,-2.54 0,-0.25 -0.17,-0.41 -0.17,-0.55 0,-0.33 0.33,-0.75 0.33,-1.19 0,-0.27 -0.25,-0.44 -0.49,-0.68 -0.08,-0.23 -0.23,-0.33 -0.23,-0.54 0,-0.49 0.23,-0.75 0.39,-1.21 0.17,-0.74 0,-1.31 -0.31,-1.96 0.39,0.32 0.64,0.72 0.92,1.22 0.12,0.23 0.27,0.86 0.27,1.46 0.09,0.64 -0.15,1.27 -0.05,2.07 0.03,0.41 0.56,0.68 0.61,1.38zm-2.99 -6.7l0 0 0.09 0c0.56,0.16 0.72,0.89 0.8,1.61 0,0.41 -0.18,1.04 -0.18,1.55 -0.06,0.4 0.03,0.89 0.18,1.21 0.27,0.15 0.5,0.42 0.5,0.65 0,0.3 -0.23,0.48 -0.23,0.8 -0.27,-0.32 -0.35,-0.5 -0.42,-0.86 -0.03,-0.33 -0.17,-0.68 -0.23,-1.01 0,-0.33 0.14,-0.45 0.14,-0.79 0.09,-1.22 -0.3,-2.27 -0.65,-3.16zm-0.39 9.95c0.06,0.23 0.16,0.23 0.25,0.39 0.14,0.35 0.14,1.38 -0.19,1.48 0.1,-1.22 -1.09,-1.87 -0.8,-3.09 0.1,-0.3 0.17,-0.57 0.24,-0.9 0.27,-0.64 0.56,-1.38 0.33,-2.16 0,-0.09 -0.06,-0.27 -0.06,-0.27 0,-0.08 0.39,-0.88 0.48,-1.03 0.14,0.08 0.14,0.42 0.23,0.59 0.13,0.44 0.42,0.95 0.42,1.61 0.06,0.56 -0.16,1.19 -0.42,1.51 -0.26,0.42 -0.68,0.7 -0.65,1.39 0,0.24 0,0.36 0.17,0.48zm0.3 -8.73c0.18,1.07 0,2.03 -0.38,2.83 -0.24,0.58 -0.56,1.06 -0.95,1.45 0.07,0.23 0.2,0.65 0.07,0.79 -0.42,0 -0.72,-0.14 -1.13,-0.29 0.15,0.45 0.65,0.57 1,0.8 0.06,0.15 -0.09,0.39 -0.09,0.39 -0.2,0 -0.68,-0.39 -0.91,-0.39 0,-0.1 -0.1,-0.23 -0.1,-0.23 -0.08,0.56 0.33,0.62 0.62,0.9 -0.11,0.13 -0.29,0.36 -0.37,0.36 -0.48,0.1 -0.66,-0.64 -0.77,-1.03 -0.3,0.06 -0.18,0.51 -0.3,0.67 -0.69,-0.1 -0.95,-0.77 -0.95,-1.65 0.26,-0.5 1.36,-0.42 1.54,-1.03 0,-0.16 -0.08,-0.42 -0.08,-0.57 -0.1,-0.27 -0.1,-0.33 -0.31,-0.45 -0.08,0.18 0.21,0.51 0,0.75 -0.08,0.11 -0.2,0 -0.35,0 -0.44,-0.07 -0.89,0.27 -1.28,0.17 -0.13,-0.06 -0.32,-0.17 -0.58,-0.17 -0.12,0 -0.36,0 -0.45,-0.07 -0.09,-0.17 0.09,-0.5 -0.09,-0.56 -0.17,0.16 -0.26,0.39 -0.2,0.8 0.03,0.27 0.29,0.47 0.43,0.63 0.36,0.08 0.89,0.08 1.08,0.5 0.11,0.18 0.11,0.47 0.05,0.63 -0.05,0.68 -0.56,1.02 -1.18,1.15 0.14,-0.13 0.14,-0.74 0,-0.74 -0.18,0 -0.27,0.51 -0.44,0.61 -0.16,0.36 -0.62,0.61 -0.86,0.13 0.35,-0.23 0.7,-0.41 0.86,-0.9 -0.16,0 -0.49,0.1 -0.75,0.25 -0.29,0.18 -0.45,0.24 -0.45,-0.25 0.49,-0.07 0.82,-0.41 1.04,-0.7 -0.33,0 -0.7,0.15 -1.17,0.15l0 -0.33c-0.73,-0.71 -1.28,-1.93 -1.28,-3.35 0,-0.93 0.21,-1.9 0.54,-2.7 0.14,-0.27 0.29,-0.56 0.38,-0.73 0.18,-0.31 0.36,-0.5 0.61,-0.64 0.37,-0.09 0.92,-0.26 1.43,-0.26 0.5,0.17 0.92,0.26 1.36,0.4 0.66,0.19 1.01,-0.23 1.51,-0.23 0.66,-0.08 1.28,0.09 1.64,0.42 0.13,0.15 0.32,0.31 0.46,0.48 0.42,0.39 0.72,1.1 0.8,2.01zm-9.29 1.36c0,0.48 0,0.92 -0.12,1.31 -0.06,0.39 -0.43,0.74 -0.44,1.22 -0.1,0.21 0,0.21 0,0.21 -0.1,0.08 -0.12,0.18 -0.16,0.35 -0.07,0.33 0.06,0.78 0.06,1.28 -0.41,-0.66 -0.41,-1.55 -0.2,-2.26 0.09,-0.64 0.31,-1.07 0.41,-1.63 0.09,-1.04 -0.1,-2.17 0.18,-3.06 0.09,-0.56 0.48,-0.96 0.62,-1.46 0.21,0 0.24,-0.14 0.53,-0.14 0,-0.09 -0.11,0 -0.11,-0.09 0.71,-0.44 1.69,-0.97 2.75,-0.67l-1.16 0c-0.97,0.41 -1.8,0.9 -2.25,1.96l-0.09 0c-0.05,0.4 -0.14,0.79 -0.2,1.21 -0.09,0.62 0.15,1.21 0.18,1.77zm-2.49 0.58l0.03 0c0.36,-0.69 0.8,-1.29 1.04,-2.08 0,0 0,0.14 0.11,0.14 -0.03,1.43 -1.15,2.03 -1.33,3.41 -0.23,-0.35 -0.23,-1.01 0,-1.13 0,0 0,-0.34 0.15,-0.08 0.03,-0.17 -0.15,-0.17 0,-0.26zm1.33 -3.72c0.15,-0.09 0.3,-0.35 0.61,-0.35 -0.24,0.51 -0.31,1.22 -0.31,1.8 -0.06,0 -0.21,-0.08 -0.39,-0.23 -0.26,-0.27 -0.17,-1.06 0.09,-1.22zm-0.65 4.51c0.15,-0.39 0.3,-0.53 0.39,-0.89 0.26,-0.48 0.41,-1.04 0.5,-1.69l0 -0.08 0.06 0c0.41,1.53 -0.56,2.99 -0.48,4.29 0,0.51 0.18,0.99 0.33,1.37 0.15,0.36 0.33,0.52 0.15,1.13 -0.39,-0.32 -0.56,-0.61 -0.8,-1.13 -0.09,-0.15 -0.2,-0.25 -0.2,-0.38 -0.24,-0.84 -0.18,-1.88 0.05,-2.62zm2.4 -4.45c0,-0.06 0,-0.06 0.09,-0.15 -0.15,0.6 -0.35,1.04 -0.47,1.73 -0.1,-0.1 -0.1,-0.19 -0.1,-0.42 0.15,-0.35 0.24,-1.06 0.48,-1.16zm-0.59 -2.74c0.02,-0.08 0.21,-0.08 0.11,-0.16 -0.2,0 -0.23,0.08 -0.47,0.08 -0.89,0.75 -1.39,1.72 -2.04,2.67 -0.24,0.65 -0.51,1.04 -0.68,1.87 -0.27,0.8 -0.48,1.94 -0.65,3 0,0.41 -0.09,0.74 -0.09,1.1 0.09,0.35 0.09,0.68 0.17,0.97 0.16,0.84 0.45,1.47 0.51,2.14 0.03,0.68 -0.06,1.4 0.23,1.91 0.22,0.4 0.71,0.76 1.16,0.87 -0.06,-0.11 -0.15,-0.29 -0.27,-0.47 -0.38,-0.66 -0.67,-1.46 -0.77,-2.31l0 -0.96c0.1,-0.28 0.3,-0.67 0.3,-1.18 0,-0.14 -0.15,-0.29 -0.15,-0.47l0 -0.5c-0.05,-0.16 -0.23,-0.21 -0.3,-0.36 -0.2,-0.44 -0.39,-1.22 -0.17,-1.71 0.03,-0.09 0.17,-0.26 0.24,-0.43 0.23,-0.29 0.55,-0.71 0.83,-0.95 0.08,-0.44 0.29,-0.98 0.29,-1.3 0,-0.18 -0.11,-0.41 -0.11,-0.5 -0.04,-0.3 -0.04,-0.63 0.05,-0.98 0.24,-0.55 0.56,-0.78 1.25,-0.86 0.11,-0.36 0.2,-0.59 0.44,-0.8 0,-0.25 0,-0.41 0.12,-0.67zm-0.68 17.39c-0.04,0.51 -0.24,0.8 -0.39,1.1 0,0.28 0.21,0.77 0.28,0.99 0.24,0.5 0.52,0.82 0.81,1.13 0.24,-0.31 0.54,-0.37 0.54,-0.72 0.03,-0.24 -0.45,-0.51 -0.59,-0.63 -0.42,-0.59 -0.53,-1.87 -0.24,-2.67 0.15,-0.27 0.38,-0.68 0.29,-1.15 -0.05,-0.05 -0.29,-0.48 -0.47,-0.62 -0.11,-0.37 -0.34,-0.48 -0.41,-0.84 -0.39,-0.46 -0.39,-1.36 -0.26,-2.01 -0.42,-0.3 -0.63,-0.9 -1.01,-1.26l-0.07 0c-0.26,1.59 0.16,2.48 0.78,3.27 0.35,0.42 1.01,1.08 0.76,1.87 -0.02,0.15 -0.2,0.15 -0.2,0.31 0,0.16 0.14,0.43 0.14,0.43 0.06,0.19 0.06,0.64 0.04,0.8zm2.13 0.87c0.08,0.23 0.3,0.51 0.39,0.86 0,-0.63 0.29,-1.07 0.29,-1.73 0.09,-0.61 -0.12,-1.12 -0.29,-1.62 0,-0.33 -0.15,-0.63 -0.18,-0.89 -0.13,-0.54 0.03,-1.04 0.09,-1.69 0.09,-0.12 0.09,-0.24 0.09,-0.67 0,-0.17 -0.15,-0.55 -0.09,-0.94 0,-0.26 0.22,-0.58 0.09,-0.87l0 -0.28c-0.15,-0.24 -0.18,-0.39 -0.28,-0.74 -0.03,-0.16 0,-0.3 -0.17,-0.3 0,0.48 0,0.8 -0.15,1.16 -0.23,0.77 -0.89,1.27 -0.8,2.33 0.09,0.7 0.51,1.1 0.8,1.77 0.15,0.41 0.32,0.9 0.32,1.35 0.1,0.78 -0.32,1.72 -0.11,2.26zm0.64 2.04c0.04,0.38 -0.08,1.05 -0.12,1.38 0.22,0 0.49,0.16 0.71,0.16 0,-0.65 -0.22,-1.23 -0.55,-1.6l-0.04 0.06zm0.37 -1.18c-0.04,0.59 0.33,1.01 0.55,1.33 0,0.16 0.16,0.42 0.22,0.56 0.03,0.27 -0.06,0.67 0.03,0.83 0.17,-0.16 0.26,-0.41 0.35,-0.49 0.14,-0.24 0.41,-0.34 0.62,-0.41 0.56,-0.49 0.65,-1.46 0.42,-2.45 -0.1,-0.06 -0.16,-0.11 -0.21,-0.23 -0.3,-0.36 -0.59,-0.54 -0.69,-1.03 -0.32,-0.81 -0.23,-1.79 -0.23,-2.68 -0.29,-0.57 -0.62,-0.71 -0.62,-1.36 0,-0.24 0.11,-0.48 0.11,-0.67 -0.03,-0.32 -0.22,-0.55 -0.33,-0.85 -0.22,-0.17 -0.32,-0.27 -0.49,-0.5 -0.35,1.03 0.6,1.78 0.36,2.67 -0.19,0.09 -0.19,0.14 -0.42,0.14 -0.12,0 0.09,-0.23 -0.12,-0.23 -0.26,1.13 0.57,2.02 0.67,3.03 0.11,0.35 0.11,0.61 0,1 0,0.48 -0.22,0.71 -0.22,1.34zm1.86 -2.8c0.1,-0.16 -0.09,-0.47 -0.09,-0.55 0,-0.33 0.26,-0.63 0.21,-0.89 0,-0.06 -0.12,-0.23 -0.21,-0.48 -0.09,-0.06 -0.09,-0.24 -0.09,-0.42 -0.12,0 -0.17,-0.14 -0.17,-0.14 -0.12,-0.32 -0.12,-0.52 -0.36,-0.65 -0.29,0.74 0.36,1.21 0.41,1.95 0,0.71 -0.27,1.28 0,1.84 0,-0.39 0.3,-0.46 0.3,-0.66zm3.71 5.03c-0.22,0.49 -0.72,0.88 -1.13,1.15 0.77,0.3 1.59,0.07 1.89,-0.6 0.12,-0.39 0.03,-0.89 0.2,-1.29 0,-0.16 0.06,-0.22 0.16,-0.31 0.06,-0.06 0.32,-0.32 0.41,-0.59 0.24,-0.33 0.17,-0.94 0.24,-1.33 0.74,0.88 -0.24,1.86 -0.51,2.56 0,0.07 -0.14,0.41 0,0.49 0.21,-0.08 0.31,-0.15 0.44,-0.24 0.16,-0.08 0.3,-0.18 0.39,-0.25 0.42,-0.33 0.48,-0.96 0.57,-1.56 0.08,-0.26 0.08,-0.52 0.24,-0.89 0,-0.11 -0.16,-0.59 0,-1.1 0,-0.26 0.33,-0.41 0.33,-0.8 0.07,-0.27 0,-0.68 0,-0.97 0,-0.23 0.07,-0.48 0.14,-0.66l0 -0.8c-0.14,-0.41 -0.41,-0.64 -0.63,-1.09 -0.08,0 -0.15,-0.12 -0.17,-0.36 -0.06,-0.09 -0.06,-0.19 -0.15,-0.23 -0.26,-0.66 0.15,-1.48 0.09,-2.11l-0.09 -0.18 -0.09 0.18c-0.09,0.34 -0.24,0.63 -0.27,0.88 -0.06,0.07 -0.06,0.15 -0.2,0.25 -0.09,0.24 -0.29,0.32 -0.42,0.47 -0.18,0.23 -0.26,0.51 -0.26,0.74 0.03,0.36 0.26,0.61 0.35,1.04 0.04,0.18 0.17,0.51 0.04,0.8 -0.04,0.41 -0.31,0.89 -0.45,1.3 -0.33,0.67 -0.73,1.28 -0.9,1.93 -0.13,0.6 0.1,1.15 0.17,1.78 0,0.68 -0.17,1.38 -0.39,1.79zm3.13 -21.27c-0.71,0.18 -1.13,0.59 -1.66,0.8 0.1,0 0.3,0 0.53,-0.13 0.06,-0.08 0.09,-0.24 0.09,-0.33 0.42,-0.16 1.14,-0.42 1.54,-0.08 0.13,0.08 0.33,0.5 0.33,0.63 0.21,0.41 0.21,1.15 0.06,1.36 -0.15,0.51 -0.51,0.76 -0.72,1.07 0.48,0.73 0.99,1.63 1.04,2.83 0,0.43 -0.05,0.75 -0.05,1.23 -0.07,1.1 0.76,1.78 0.47,2.97 0,0.12 -0.1,0.28 -0.1,0.41 0,0.16 0.25,0.41 0.33,0.56 0.42,0.62 0.42,1.67 0.42,2.58 0,0.42 -0.09,0.84 0,1.08 0,0.38 0.19,0.79 0.32,1.26 0,0.1 0,0.27 0.21,0.27 0.07,-0.07 0,-0.43 0,-0.68 0.07,-1.65 -0.29,-3.29 -0.34,-4.84 0,-1.03 0.05,-2.1 0.05,-3.04 0,-1.05 0.08,-2.05 -0.15,-2.92 -0.09,-0.26 -0.18,-0.5 -0.36,-0.65 -0.38,-1.22 -0.48,-2.82 -1.12,-3.79 -0.24,-0.33 -0.48,-0.59 -0.89,-0.59zm-3 -1.99l0 0.08c0.16,0.26 0.51,0.71 0.6,1.13 0.03,0.7 -0.8,1.12 -1.21,1.37 -0.24,0.08 -0.5,0.08 -0.65,0.21 0.15,0.09 0.41,0 0.65,0l0.8 0c0.47,0 0.86,-0.21 1.12,-0.46 0.26,-0.16 0.65,-0.58 0.98,-0.65 0.09,-0.12 0.32,-0.12 0.32,-0.29 0,0 -0.15,-0.18 -0.23,-0.27 -0.18,-0.27 -0.27,-0.41 -0.51,-0.59 -0.3,-0.06 -0.65,0 -0.88,-0.06 -0.36,-0.13 -0.48,-0.47 -0.99,-0.47zm-1.98 -0.51l0 0.15c0,0.17 0.21,0.17 0.31,0.28 0.08,0.08 0.23,0.16 0.31,0.16 0.25,0.21 0.62,0.26 0.75,0.45 0.06,0.09 0.12,0.26 0.15,0.26 0.11,0.33 0.33,0.42 0.33,0.6 -0.07,0.44 -0.9,0.52 -1.31,0.6 -0.15,0.18 -0.23,0.26 -0.33,0.34 -0.11,0.25 -0.21,0.33 -0.21,0.46 0.21,0 0.31,-0.21 0.54,-0.3 0.08,-0.16 0.18,-0.16 0.33,-0.16 0.37,-0.16 0.76,-0.42 1.07,-0.58 0.13,-0.36 0.23,-0.63 0.04,-0.96 -0.04,-0.26 -0.49,-0.71 -0.71,-0.79 -0.11,-0.08 -0.32,-0.19 -0.55,-0.19 -0.33,-0.17 -0.51,-0.4 -0.72,-0.32zm-4.7 -1.21c1.07,0.25 2.04,0.8 3.07,1.07 0.69,0.14 1.34,0.37 1.84,0.73 0.1,0 0.18,0.18 0.33,0.21 0.18,0 0.33,0.05 0.5,0.18 0.09,0.06 0.2,0 0.2,0.24 -0.2,0.08 -0.37,-0.18 -0.52,-0.24 -0.8,-0.39 -1.78,-1.06 -3.05,-1.12 0.17,0.14 0.47,0.14 0.59,0.14 1.15,0.32 2.05,0.98 2.98,1.55 0.13,0.08 0.39,0.17 0.39,0.35 -0.2,0.12 -0.39,0 -0.5,-0.12 -1.03,-0.74 -2.02,-1.46 -3.46,-1.63 -0.1,0.28 0.17,0.28 0.38,0.36 0.8,0.08 1.36,0.29 1.95,0.79 0.21,0 0.39,0.25 0.54,0.33 0.27,0.15 0.5,0.15 0.62,0.44 -0.29,0.19 -0.77,-0.05 -1.06,-0.17 -0.3,-0.18 -0.6,-0.35 -0.83,-0.54 -0.57,-0.14 -1.22,-0.38 -1.93,-0.51 -0.35,-0.05 -0.73,-0.05 -1.06,-0.05 -0.24,-0.03 -0.49,-0.29 -0.8,-0.29 -0.27,0.29 0.18,0.29 0.47,0.34l0.18 0.13c0.37,0.06 0.95,0.06 1.44,0.24 0.27,0 0.9,0.14 0.9,0.41 0.09,0.27 -1.22,0 -1.64,0 -0.65,0 -1.17,0.09 -1.9,0 -0.52,-0.18 -1.09,-0.33 -1.29,-0.65 -0.09,-0.13 -0.23,-0.21 -0.23,-0.39 0,-0.08 0.05,-0.27 0,-0.59 -0.04,-0.14 -0.15,-0.28 -0.14,-0.32 0.1,-0.25 0.14,0 0.37,-0.09 0.06,-0.16 0.06,-0.21 0.15,-0.21 0.12,0 0.29,0.05 0.36,0 0.2,-0.12 0.23,-0.18 0.52,-0.18 0.19,-0.16 0.39,-0.32 0.63,-0.41zm-0.53 -0.9c-0.27,0 -0.6,0.36 -1.07,0.42 -0.24,0.15 -0.65,0.24 -0.8,0.24 -0.33,0 -0.83,0 -0.94,0.14 -0.18,0.35 0.2,0.51 0.44,0.51 0.17,0 0.3,-0.32 0.56,-0.06 0.09,-0.1 0.14,-0.26 0.31,-0.26l0.31 0c0.12,0 0.21,-0.19 0.35,-0.19l0.24 0c0.21,0 0.24,-0.23 0.42,-0.23 0.27,-0.09 0.62,0 0.62,-0.21 0,-0.27 -0.18,-0.5 -0.44,-0.36zm-0.18 -0.71l0.08 0c0.16,0.15 -0.17,0.39 -0.29,0.47 -0.45,0.33 -1.42,0.66 -2.07,0.66 -0.24,0 -0.81,0 -0.59,-0.33 1.09,0.27 2.45,0 2.87,-0.8zm-2.28 -6.46c-0.06,-0.33 -0.24,-0.66 -0.24,-0.9 -0.11,-0.11 -0.11,-0.47 -0.11,-0.64l-0.13 -0.75c0,-0.29 -0.03,-0.29 -0.05,-0.71 -0.09,-0.51 -0.09,-0.51 -0.28,-1.04 -0.88,0 -1.68,0.16 -2.34,0.5 0.1,1.13 0,1.25 0.1,1.76 0.09,0.41 0,0.88 0.23,1.45 0.51,1.3 1.84,5.2 2.43,6.49 0.09,0.16 0.24,0.63 0.36,0.63 0.12,0.06 0.42,0.06 0.65,0.06 0.33,-0.06 1.15,-0.24 1.15,-0.5 0.09,-0.19 -0.15,-0.72 -0.17,-1.05 -0.5,-1.75 -0.95,-3.65 -1.6,-5.3zm-0.24 -6.47l0.21 0c0,0.15 -0.66,0.33 -0.86,0.47 -0.93,0.16 -1.93,0.55 -2.66,1.08 -0.23,0.14 -0.37,0.28 -0.6,0.28 0.14,-0.14 0.23,-0.28 0.33,-0.37 0.12,-0.07 0.34,-0.16 0.51,-0.24 0.59,-0.36 1.23,-0.75 1.95,-0.98 0.38,-0.09 0.83,-0.15 1.12,-0.24zm-0.11 -0.41c-0.16,-0.18 -0.24,-0.37 -0.27,-0.63 -0.27,-0.08 -0.51,0.09 -0.66,0.09 0.1,0.3 0.1,0.47 0.15,0.63 0.24,-0.09 0.54,-0.09 0.78,-0.09zm-1.63 -7.04c0.11,0.27 0.14,0.51 0.16,0.57 0.3,0.92 0.42,1.78 0.54,2.85 0.1,0.32 0.15,0.8 0.3,1.22 0.03,0.38 0.17,0.85 0.29,1.26l-0.49 0c-0.9,0.07 -2.13,0.07 -3.26,0.6l0 -0.27 0 -0.26c-0.04,-0.24 -0.04,-0.15 -0.04,-0.48 0,-0.2 -0.01,-0.56 -0.08,-0.56 0,-0.29 -0.42,-0.9 -0.5,-0.42l0 0.36c0.08,0.77 0,0.77 0.08,1.63 0,0.3 0.1,1.65 0,1.97l-0.51 0c-0.2,0.11 -0.46,0.2 -0.67,0.28 -0.24,0.09 -0.5,0.25 -0.92,0.09 -0.41,0 -0.74,-0.09 -1.07,-0.26 -0.17,-0.11 -0.47,-0.33 -0.7,-0.43 -0.72,-0.23 -0.8,0.6 -1.64,0.32 0.27,-0.55 0.72,-1.29 1.13,-1.97 0.51,-0.91 1.21,-1.81 1.87,-2.51 0.26,-0.34 0.56,-0.57 0.83,-0.99 0.32,-0.42 0.71,-0.88 1.14,-1.3 0.13,-0.07 0.28,-0.21 0.46,-0.21 -0.12,0.63 -0.43,1.19 -0.89,1.51 -0.21,0.24 -0.33,0.42 -0.45,0.42 -0.12,0.23 -0.35,0.23 -0.45,0.38l0 0.19c0,0.38 0.51,0.38 0.86,0.23 0.3,-0.19 0.5,-0.8 0.81,-1.22 0.69,-1.3 1.56,-2.58 2.65,-3.38 0.22,-0.18 0.48,0.3 0.55,0.38zm-15.85 29.25c0,-3.05 -0.08,-6.13 0.27,-8.54l0 -0.27 0 -0.17c0.1,-0.35 0.23,-0.72 0.23,-1.1 0.09,-0.09 0.09,-0.33 0.09,-0.66 0.15,-0.08 0.3,-0.42 0.3,-0.71 0,-0.59 -0.15,-1.36 -0.15,-2.14 -0.03,-0.53 0.15,-1.36 -0.15,-1.9 -0.22,0.16 -0.49,0.39 -0.86,0.46 -0.08,1.44 -0.08,2.84 -0.11,4.21l0 1.65c0,0.63 0,1.1 -0.06,1.81 -0.19,2.16 -0.19,4.61 -0.19,7.13 0.25,0.15 0.49,0.15 0.63,0.23zm-0.38 1.22l0 -0.72 -0.06 0c-0.36,2.27 -0.59,4.43 -0.83,6.58 0.32,0 0.32,0.13 0.57,0.29 0.07,-0.45 0.07,-0.96 0.07,-1.31 0,-0.45 0.1,-0.95 0.1,-1.34 0,-1.22 0.15,-2.37 0.15,-3.5zm2.33 -14.12c-0.27,0.48 -0.41,1.22 -0.52,1.74 -0.22,0.61 -0.36,1.13 -0.54,1.83 -0.15,1.26 -0.3,2.71 -0.3,4.08 0.15,-0.03 0.3,-0.29 0.39,-0.57 0.45,-0.8 0.89,-1.54 1.27,-2.25 0.65,-0.74 1.31,-1.63 2.05,-2.39 0.56,-0.99 1.3,-1.63 2.01,-2.44 0.36,-0.42 0.71,-0.78 1.13,-1.14 0.43,-0.32 0.82,-0.67 1.09,-1.15 -0.35,-0.05 -0.76,0 -1.01,-0.05 -0.32,-0.09 -0.52,-0.33 -0.76,-0.42l-0.77 0c-0.69,-0.18 -1.45,-0.18 -2.17,-0.33 -0.26,0.33 -0.36,0.5 -0.62,0.8 -0.36,0.48 -0.62,0.83 -0.95,1.51 -0.03,0.27 -0.18,0.54 -0.3,0.78zm-0.46 -3.44l0 -0.6c0.05,-0.32 0.29,-0.68 0.46,-0.97 0.18,0.23 0.12,0.65 0.18,0.97 0.09,0.54 0.09,1.1 0.09,1.7 0.03,0.29 0,0.71 -0.09,0.88 -0.18,0.32 -0.35,0.68 -0.59,0.95 -0.05,-0.95 -0.15,-1.92 -0.05,-2.93zm2.42 0.27c0.15,-0.45 0,-1.04 0,-1.61 -0.09,0.57 0,0.98 0,1.61zm6.75 -3.3c0.32,-0.09 0.65,-0.18 0.89,-0.24l0.03 0c0,0.15 -0.09,0.15 -0.09,0.24 -0.32,0.33 -0.32,1.04 -0.74,1.13 -0.15,0.24 -0.44,0.08 -0.83,0.14 -0.62,-0.56 -2.02,-0.56 -2.75,-0.23 -0.17,0.09 -0.44,0.42 -0.83,0.33 0.05,-0.33 0.39,-0.51 0.62,-0.66 0.45,-0.21 0.91,-0.55 1.37,-0.8 0.31,0 0.56,-0.15 0.8,-0.15 0.08,0.4 0.25,0.74 0.79,0.57 0.17,-0.1 0.23,-0.17 0.42,-0.17 0.09,0 0.26,-0.11 0.32,-0.16zm-6.1 15.22c-0.43,0.12 -0.5,0.52 -0.74,0.94 -0.36,0.8 -0.71,1.46 -0.98,2.32 -0.71,1.79 -1.41,3.66 -2.1,5.52 -0.15,0.14 -0.15,0.38 -0.24,0.48 -0.13,-0.18 -0.07,-0.48 -0.07,-0.71 -0.06,-1.37 -0.06,-2.92 0.07,-4.22 0,-0.57 0.09,-1.07 0.09,-1.53l0 -1.17c0,-0.36 0.12,-0.69 0.15,-1.03 0.15,-0.24 0.15,-0.6 0.24,-0.87 0.09,-0.18 0.18,-0.33 0.23,-0.41 0.33,-1.3 1.12,-2.43 1.79,-3.57 0.64,-0.88 1.36,-1.77 2.07,-2.57 0.92,-1.07 1.95,-1.93 3.11,-2.85 0.71,-0.38 1.39,-0.89 1.91,-1.42 0.18,-0.25 0.25,-0.6 0.51,-0.75 0,0.33 -0.17,0.57 -0.24,0.75 -0.35,0.53 -0.79,1.12 -1.23,1.56 -0.79,1.07 -1.61,2.17 -2.3,3.45 -0.32,0.53 -0.7,1.09 -1,1.69 -1.06,1.75 -2.01,3.71 -2.99,5.58 -0.34,0.55 -0.62,1.11 -0.89,1.92 0.27,-0.14 0.27,-0.31 0.3,-0.41 1.51,-2.41 2.82,-4.92 4.33,-7.36 0.83,-1.27 1.68,-2.52 2.55,-3.74 0.79,-0.77 1.3,-1.57 1.88,-2.64 0.24,-0.3 0.42,-0.75 0.63,-0.97 0.24,-0.18 0.41,0.32 0.33,0.83 0,0.09 -0.13,0.3 -0.3,0.62 -0.26,0.67 -0.5,1.12 -0.77,1.9 -0.47,0.72 -0.89,1.48 -1.22,2.35 -0.79,1.65 -1.68,3.1 -2.51,4.64 -0.44,0.62 -0.95,1.49 -1.3,2.19 -1.23,2.18 -2.41,4.22 -3.54,6.4 -0.11,0.16 -0.11,0.4 -0.38,0.4 0,-0.14 0.18,-0.4 0.27,-0.57 0.42,-1.12 0.95,-2.42 1.54,-3.39 0.33,-0.72 0.6,-1.46 0.87,-2.42 0.01,-0.34 0.23,-0.77 -0.07,-0.94zm2.21 -12.19c-0.1,-0.45 -0.04,-0.85 0.1,-1.28 0.15,-0.29 0.74,-0.71 1.21,-0.71 0.81,0 1.6,0.17 1.84,0.71 0.23,0.75 0,1.55 -0.62,1.78 -0.83,0.6 -2.19,0.18 -2.53,-0.5zm-1.03 -1.9c-0.14,0.14 -0.49,0.33 -0.88,0.14 0.15,-0.23 0.39,-0.23 0.56,-0.47 0.18,-0.09 0.32,-0.27 0.57,-0.3 0.4,-0.12 0.74,-0.34 1.01,-0.5l0.02 0.05c-0.26,0.45 -0.8,0.75 -1.28,1.08zm-0.08 2.08c-0.33,0.09 -0.24,-0.24 -0.33,-0.71 -0.08,-0.24 -0.26,-0.81 0.18,-0.75 0.15,0.43 0.15,0.92 0.15,1.46zm-5.23 26.69c-0.25,-0.18 -0.51,-0.18 -0.57,-0.18 -0.81,0.18 -1.46,0.36 -2.23,0.42 -0.44,0 -0.97,0.15 -1.33,0.3 0.8,3.27 1.62,6.41 2.43,9.49 0.47,0.09 0.89,0.09 1.19,0.09 0.51,0.04 0.97,0.04 1.47,0.04 0.15,0 0.27,0 0.48,0.17 -0.33,-0.62 -0.38,-1.27 -0.48,-2.08 -0.18,-0.8 -0.23,-1.96 -0.41,-2.61 -0.27,-0.15 -0.39,-0.54 -0.88,-0.87 0,0 -0.18,-0.07 -0.37,-0.16 -0.11,-0.1 -0.26,-0.28 -0.36,-0.28 -0.4,-0.11 -0.82,0 -1.11,0 -0.15,0 -0.34,0 -0.45,-0.06 -0.26,-0.05 -0.39,-0.38 -0.3,-0.71 0,0 0.12,-0.18 0.24,-0.33 0.88,-0.16 1.87,0 2.84,0.15 -0.09,-1.12 -0.09,-2.31 -0.16,-3.38zm1.44 5.73c-0.33,0.72 -0.09,1.39 0,2.01 0,0.6 0.08,1.17 0.26,1.54 0.51,0.43 1.19,0.84 2,0.88 0.23,0.17 0.57,0.17 0.73,0.17 0.23,-0.17 0.39,-0.54 0.47,-0.89 0.18,-0.16 0.18,-0.38 0.27,-0.53 0.47,-1.46 1.04,-2.83 1.51,-4.14 0.17,-0.5 0.3,-0.96 0.41,-1.39 0.25,-1.02 0.54,-1.99 0.74,-3.09 0.21,-0.87 0.38,-1.74 0.54,-2.63 0.15,-0.57 0.23,-1.21 0.18,-1.72 -0.09,0.27 -0.25,0.33 -0.34,0.45 -0.17,0.16 -0.3,0.52 -0.38,0.85 -0.39,0.9 -0.74,1.79 -0.98,2.76 -0.28,1.07 -0.61,1.75 -0.97,2.74 -0.09,0.13 -0.32,0.82 -0.57,0.64 -0.32,-0.15 0.25,-1.02 0.25,-1.12 0.52,-1.03 0.74,-2.16 1.01,-3.35 0,-0.12 0.17,-0.55 0,-0.72 -0.17,0.13 -0.24,0.27 -0.33,0.53 -0.36,0.31 -0.78,0.87 -1.01,1.28 -0.24,0.24 -0.48,0.66 -0.72,0.9 -0.64,0.94 -1.38,1.84 -1.94,2.91 -0.16,0.29 -0.42,0.52 -0.67,0.96 -0.11,0.43 -0.38,0.72 -0.46,0.96zm5.15 -11.07c0.26,-0.47 0.5,-0.95 0.75,-1.36 0.31,-0.6 0.49,-1.06 0.76,-1.64 1.04,-2.01 1.81,-4.18 2.43,-6.46 0.35,-1.19 0.62,-2.4 1.01,-3.53 0.17,-0.74 0.34,-1.34 0.37,-1.9 0.06,-0.53 0.25,-1.37 0.25,-1.92 -0.25,0 -0.19,0.29 -0.25,0.46 -0.13,0.61 -0.2,1.08 -0.46,1.83 -0.57,2.07 -1.22,4.13 -1.96,6.28 -0.79,2.01 -1.59,4.09 -2.58,5.91 -0.14,0.31 -0.32,0.64 -0.51,0.97 -0.1,0.06 -0.44,0.74 -0.76,0.62 -0.2,-0.05 -0.08,-0.62 -0.08,-0.89 0.23,-0.53 0.55,-1.13 0.84,-1.48 0.17,-0.18 0.28,-0.6 0.51,-0.68 0.18,-0.5 0.43,-0.9 0.66,-1.4 0.06,-0.23 0.18,-0.39 0.33,-0.62 0.14,-0.17 0.31,-0.33 0.34,-0.56 0.22,-0.48 0.31,-0.98 0.46,-1.57 0.17,-0.46 0.44,-0.96 0.55,-1.4 0.92,-2.64 1.81,-5.13 2.46,-7.89 0,-0.05 0.17,-0.64 0.2,-0.77 0,-0.18 0.16,-0.87 -0.13,-0.87l-0.07 0c-0.47,0.45 -0.89,1.07 -1.24,1.73 -0.3,0.79 -0.81,1.72 -1.22,2.62 -0.7,1.26 -1.21,2.48 -1.91,3.79 -0.81,1.68 -1.9,3.13 -2.91,4.75 -0.42,0.71 -1.04,1.48 -1.4,2.27 -0.56,0.95 -1.13,2.08 -1.51,3.29 -0.08,0.24 -0.27,0.42 -0.29,0.66 -0.33,0.75 -0.68,1.37 -0.68,2.26 -0.09,1.2 0,2.66 0.18,3.94 0,0.51 0,0.9 0.05,1.26 0.22,0 0.28,-0.2 0.33,-0.36 0.59,-0.72 1.1,-1.46 1.72,-2.18 0.65,-0.79 1.3,-1.63 1.99,-2.4 0.41,-0.33 0.74,-0.87 0.97,-1.21 0.29,-0.5 0.55,-0.98 0.8,-1.55zm5.48 -22.13l0 -0.5c0,-0.18 -0.06,-0.24 -0.06,-0.3 0,-0.17 0,-0.26 0.06,-0.36 -0.06,-0.06 0,0 0,-0.06l0.09 0c0.06,0.25 0.06,0.54 0.06,0.9l0 0.47c-0.15,-0.08 -0.15,-0.15 -0.15,-0.15zm0.15 -13.16c-0.34,0.05 -0.6,0.29 -0.98,0.47l0.17 0c-0.59,0.24 -1,0.38 -1.5,0.65 -1.13,0.48 -2.16,1.22 -3.17,1.85 -0.41,0.23 -0.86,0.56 -1.28,0.82 -0.23,0.06 -0.38,0.48 -0.56,0.48 -0.69,0.48 -1.2,0.8 -1.87,1.45 -0.35,0.15 -0.62,0.56 -0.82,0.95 -0.12,0.15 -0.06,1.36 -0.12,1.63 0,1.02 0.48,1.69 1.39,1.69 0.45,0 0.65,-0.14 0.95,-0.39 0.21,-0.28 0.39,-0.67 0.74,-0.67 0.14,0.23 -0.09,0.67 -0.35,0.92 -0.24,0.28 -0.61,0.79 -0.95,0.93 -0.21,0.11 -0.48,0.11 -0.66,0.11 0.18,0.88 1.13,0.34 1.43,0 1.32,-1.2 2.27,-2.86 3.27,-4.22 0.55,-0.8 1.04,-1.45 1.58,-2.17 0.23,-0.41 0.51,-0.71 0.83,-1.07 0.56,-0.74 1.09,-1.18 1.69,-1.83 0.21,-0.09 0.33,-0.18 0.51,-0.24 0.4,-0.51 0.87,-0.74 1.33,-1.07 0.29,-0.24 0.73,-0.29 1.02,-0.57 -0.29,-0.41 -0.77,-0.08 -1.09,0.09 -0.2,0 -0.39,0.09 -0.53,0.19 -0.29,0.05 -0.51,0.29 -0.83,0.47l0.1 0c-0.1,0 -0.18,0 -0.18,0.06 -0.37,0.24 -0.63,0.32 -0.89,0.59 -0.54,0.48 -1.04,0.86 -1.54,1.28 -0.03,0.08 -0.19,0.08 -0.19,0.08 -0.85,0.72 -1.51,1.61 -2.38,2.17 -0.25,0.23 -0.49,0.57 -0.81,0.71 -0.2,-0.61 0.24,-0.86 0.56,-1.09 0.25,-0.42 0.48,-0.48 0.66,-0.74 1.03,-0.9 2.09,-1.55 2.99,-2.41 0.5,-0.35 1.14,-0.65 1.48,-1.12zm-2.31 -2.71c0,0 0.09,0.17 0.09,0.24 0,0.27 -0.16,0.56 -0.34,0.56 -0.23,0.18 -0.52,0.09 -0.88,0.09 -0.23,0.09 -0.41,0.18 -0.68,0.09 -0.76,0 -1.25,-0.42 -1.57,-0.74 -0.23,-0.14 -0.42,-0.39 -0.62,-0.45 0,0.21 -0.21,0.45 -0.21,0.61 -0.06,0.4 0.09,0.67 0.09,1.1 0.17,0.79 0.36,1.68 0.74,2.24 1.04,-0.56 2.02,-1.31 3.31,-1.9 0.16,-0.34 0.39,-0.77 0.48,-1.28 0,-0.56 -0.32,-0.94 -0.32,-1.59 -0.07,0.14 0,0.2 0,0.39 0,0.26 -0.09,0.49 -0.09,0.64zm0.56 1.58c0.08,-0.51 0.11,-0.6 0.27,-0.78 0.17,0 0.41,0.18 0.71,0.27 -0.3,0.23 -0.71,0.23 -0.98,0.51zm-5.57 -7.77c-0.08,0.61 -0.56,1.03 -0.56,1.68 -0.07,0.9 0.24,1.7 0.65,2.35 0.24,0.47 0.57,0.98 0.97,1.33 0.37,0.45 1.02,0.83 1.61,0.83 0.73,0.17 1.41,-0.21 1.86,-0.64 0.98,-0.72 1.72,-2.41 1.78,-3.87 0,-0.41 -0.21,-0.65 -0.33,-1 -0.14,-0.22 -0.14,-0.55 -0.14,-0.96 -0.21,-0.72 -0.57,-1.21 -1.16,-1.59 -0.44,-0.39 -0.88,-0.74 -1.67,-0.89 -0.08,-0.17 -0.01,-0.42 -0.08,-0.59 0,0.17 0,0.42 -0.08,0.59 -0.84,0.32 -1.75,0.58 -2.29,1.35 -0.06,0.1 -0.15,0.25 -0.29,0.34 -0.09,0.3 -0.18,0.64 -0.27,1.07zm0.18 6.99l0.09 0.09c0.06,0.8 0.14,1.72 0.29,2.44 0.1,0.23 0.18,0.5 0.18,0.8 -0.2,0.18 -0.47,0.42 -0.82,0.56 -0.39,-0.95 -0.55,-2.17 -0.55,-3.62 0.31,0 0.55,-0.09 0.81,-0.27zm-0.95 5.11c-0.12,0 -0.26,0 -0.43,0.23 0.23,0.1 0.23,0.42 0.17,0.84 -0.17,0 -0.39,0.14 -0.39,0.48l0.29 0c0.24,-0.1 0.87,-0.66 0.98,-0.9 0.15,-0.42 -0.41,-0.42 -0.62,-0.65zm-4.94 3.88c0.24,-1.21 0.38,-2.24 0.65,-3.55 0.23,-0.98 0.44,-1.93 0.89,-2.68 0.05,-0.32 0.27,-0.38 0.38,-0.56 0.12,-0.24 0.14,-0.24 0.24,-0.29 0.29,-0.28 0.55,-0.42 0.86,-0.69l0.2 0c0.16,-0.24 0.62,-0.33 0.98,-0.41l0.09 0c0,0.82 0.15,1.63 0.39,2.46 0,0.38 0.14,0.81 0.24,1.19 -0.63,0.42 -1.22,0.88 -1.79,1.3 -0.17,-0.14 -0.11,-0.47 -0.32,-0.65 -0.1,0.23 -0.21,0.51 -0.21,0.65 0,0.15 0.11,0.42 0.11,0.65 -0.08,0.15 0,1.22 0,1.55 -0.08,0.23 -0.2,1.3 -0.2,1.77l0 0.63c-0.8,-0.15 -1.95,-0.47 -2.66,-0.56 0.09,-0.24 0.09,-0.63 0.15,-0.81zm-0.57 2.61c1.13,0.16 2.11,0.3 2.73,0.8 -0.1,0.06 -0.1,0.15 -0.1,0.15 -0.79,-0.32 -1.68,-0.6 -2.71,-0.79 0,0 0,-0.16 0.08,-0.16zm-5.51 1.9c-0.14,0.27 -0.39,0.51 -0.47,0.83 1.08,0.42 2.2,0.89 3.23,1.34 0.3,0 0.65,0.18 0.98,0.27 0.27,0.08 0.64,0.13 1.12,0.23 0.27,0.18 0.9,0.35 1.22,0.27 0.38,-0.09 0.56,-0.66 0.88,-0.95 0.24,-0.92 0.71,-1.39 0.89,-2.32 -0.5,-0.37 -1.29,-0.62 -2.02,-0.71 -0.17,-0.06 -0.4,-0.06 -0.55,0 -0.06,0.09 -0.09,0.34 -0.09,0.51 0.47,0 1.06,0.53 0.64,1.04 -0.17,0.09 -0.25,0 -0.4,0 -0.21,-0.16 -0.42,-0.33 -0.57,-0.57 -0.23,-0.09 -0.48,-0.09 -0.77,-0.27 -1.09,-0.3 -2.36,-0.53 -3.64,-0.71 -0.17,0.09 -0.09,0.23 -0.17,0.41 -0.1,0.1 -0.18,0.27 -0.21,0.3 0,0.18 0,0.27 -0.07,0.33zm-0.39 -1.6c-0.29,0.9 -0.64,1.78 -1.29,2.2 0.1,0.17 0.12,0.23 0.12,0.23 0.3,-0.06 0.3,-0.32 0.6,-0.56 0,0 -0.07,0 -0.07,-0.09 0.12,0 0.23,-0.18 0.23,-0.33 0,0 0.12,-0.21 0.33,-0.33 -0.11,-0.33 0.08,-0.38 0.22,-0.47 -0.27,-0.15 0,-0.6 0.11,-0.65 0,-0.14 -0.25,0 -0.25,0zm-0.7 -0.3c-0.17,0.51 -0.49,1.2 -0.95,1.75 -0.12,0.09 -0.35,0.33 -0.35,0.42 0,0.24 0.32,0.24 0.47,0.14 0.34,-0.14 0.66,-0.74 0.8,-1.04 0.24,-0.32 0.44,-0.92 0.24,-1.36l-0.21 0.09zm-5.38 -4.15c-0.27,0 -0.03,0.68 0.06,0.8 0.23,0.15 0.62,0 0.91,0.15 -0.23,-0.27 -0.44,-0.44 -0.68,-0.71 -0.09,0 -0.18,-0.24 -0.29,-0.24zm1.64 1.98c-0.13,0.13 -0.4,-0.17 -0.49,-0.26 -0.47,-0.18 -1.04,0 -1.51,0.09 -0.24,-1.3 2.24,-0.68 2,0.17zm-1.89 0c0.06,-0.17 0.45,-0.17 0.54,-0.17 0.56,0 0.72,0.17 1.03,0.47 0.32,0.07 0.65,0.16 0.56,0.21 0,0.27 -0.07,0.27 -0.3,0.27 -0.38,0 -0.84,-0.41 -1.2,-0.27 -0.18,0 -0.38,0.27 -0.57,0.18 -0.26,-0.18 -0.2,-0.5 -0.06,-0.69zm0.06 0.87c0.39,-0.36 1.04,-0.09 1.43,0 0.08,0.06 0.57,0.15 0.4,0.38 -0.49,0.16 -1.19,-0.14 -1.58,0.23 -0.09,-0.07 -0.31,-0.23 -0.25,-0.61zm0.93 1.13c-0.12,0 -0.12,0.17 -0.29,0.47 -0.25,-0.14 -0.48,-0.83 -0.07,-1.06 0.3,-0.16 1.43,0.07 1.43,0.39 0.05,0.44 -0.8,0.11 -1.07,0.2zm0.9 0.33c-0.06,0.19 0.04,0.64 0.17,0.7 0.29,0.18 1.29,0.34 1.57,0.09 0.2,0.14 0.49,0.42 0.77,0.59 0.4,-0.34 0.64,-0.74 0.76,-1.38 -0.12,-0.25 -0.51,-0.33 -0.76,-0.6 -0.07,-0.95 -0.57,-1.43 -1.26,-1.9 -0.44,-0.17 -0.76,-0.53 -1.08,-0.6l-0.13 0c0.18,0.33 0.42,0.6 0.29,0.96 0.16,0.11 0.34,0.32 0.16,0.59 0.22,0.47 0.32,0.8 0.58,1.02 0.21,0.2 0.48,0 0.74,0.2 0.13,0.33 -0.26,0.47 -0.47,0.33 -0.15,0 -0.53,-0.33 -0.63,-0.53 -0.22,-0.16 -0.25,-0.39 -0.49,-0.39 0,0.17 0.24,0.23 0.24,0.39 0,0.37 -0.46,0.37 -0.46,0.53zm5.57 22.85c-0.56,-2.42 -1.13,-4.85 -1.7,-7.2 -0.23,-0.6 -0.3,-1.13 -0.46,-1.73 -0.16,-0.58 -0.35,-1.17 -0.5,-1.74 -0.68,-3.61 -1.66,-7.17 -2.45,-10.77l0 -0.03c0.35,0.21 1.18,0.03 1.68,0.21 -0.12,0.5 0,0.98 0.62,0.92 0.12,0.12 0.15,0.48 0.25,0.63 0.43,0.17 0.73,0 1.02,-0.15 2.12,0.86 4.03,1.93 6.46,2.23 0.17,2.48 -0.15,5.27 -0.23,7.95 0,0.95 -0.15,1.83 -0.21,2.75 0,1.58 -0.09,3.44 -0.33,5.16 -0.17,1.25 -0.32,2.4 -0.44,3.74 -0.07,0.36 -0.07,0.86 -0.07,1.33 0,0.41 -0.11,0.9 0,1.18 0.07,0.29 0.25,0.29 0.34,0.36 0.56,0.33 1.45,0.67 2.01,0.95l0 0.5c-1.45,0.19 -2.76,0.55 -4.21,0.67 -0.59,-2.19 -1.2,-4.63 -1.78,-6.96zm3.47 27.15c0.17,0.33 0.24,0.78 0.42,0.96 -0.18,-0.3 -0.25,-0.69 -0.42,-0.96zm0.65 -3.71c-0.65,0.23 -1.63,0.49 -2.34,0.49l-1.13 0c-0.61,-0.16 -1.03,-0.16 -1.53,-0.33 -0.25,-0.16 -0.33,-0.24 -0.59,-0.43 -0.23,-0.25 -0.46,-0.61 -0.36,-1.18l0.13 -0.09 0 -0.14c0.05,-0.18 0.16,-0.25 0.16,-0.47 -0.08,-0.27 -0.16,-0.37 -0.32,-0.6 -0.3,0 -0.56,0.14 -0.8,0.33 0,0 0,0.17 -0.03,0.27l-0.21 0.14c0,0 -0.32,0.08 -0.44,0.08 -0.21,0 -0.49,-0.08 -0.77,-0.08 -0.46,-0.33 -0.79,-0.86 -1.22,-1.31 -0.02,-0.33 -0.2,-0.56 -0.07,-0.94 0,-0.33 0.05,-0.66 0.16,-0.92 0.13,-0.17 0.45,-0.54 0.34,-0.89 -0.1,-0.16 -0.21,-0.16 -0.43,-0.16 -0.07,-0.22 -0.07,-0.22 -0.2,-0.37 -0.1,-0.1 -0.36,0 -0.44,0.15 -0.23,0.22 -0.27,0.79 -0.29,1.1 0,0.57 -0.1,1.29 0.02,1.86 0.04,0.35 0.27,0.5 0.35,0.88 0.26,0.27 0.54,0.68 0.89,0.93l0.1 0c0.14,0.29 0.79,0.54 1.07,0.8 0.2,0.24 0.49,0.36 0.77,0.54 0.25,0.34 0.9,0.26 1.2,0.5 0.32,0.17 0.65,0.33 0.96,0.41 1.15,0.47 2.09,1.07 3.28,1.39 0.44,0.3 0.85,0.54 1.26,0.8 0.19,0.25 0.48,0.39 0.63,0.63 0,0.18 0,0 0,0 -0.29,-0.09 -0.56,-0.38 -0.8,-0.24 0.09,0.42 0.24,0.48 0.42,0.56 0,0 0.09,0 0,0.1 0.23,-0.1 0.26,0.23 0.32,0.35 -0.18,0 -0.32,-0.45 -0.57,-0.45 0,-0.14 -0.17,-0.41 -0.37,-0.41 -0.04,0.27 0.14,0.27 0.08,0.33 -0.08,0 -0.12,-0.06 -0.12,-0.06 -0.23,0.06 0,0.14 0.12,0.41 -0.12,0 -0.29,-0.27 -0.44,-0.35 -0.09,0.08 0,0.08 0,0.35 -0.09,0 -0.09,-0.27 -0.24,-0.27 0,0.1 0.1,0.45 0.15,0.49 0,0.17 0.18,0.35 0.18,0.47 0.06,0.68 -0.23,1.39 0.06,1.97 -0.39,-0.49 -0.06,-1.29 -0.15,-1.89 -0.09,-0.2 -0.24,-0.59 -0.42,-1.04 -0.82,-1.21 -2.45,-1.9 -4.11,-2.42 -0.31,-0.25 -0.94,-0.4 -1.42,-0.49 -0.98,-0.31 -2.04,-0.8 -3.16,-1.14 -0.39,-0.36 -0.81,-0.8 -1.26,-1.2 -0.2,-0.32 -0.43,-0.61 -0.68,-0.98 -0.13,-0.23 -0.13,-0.53 -0.32,-0.97 -0.07,-0.24 -0.1,-0.48 -0.1,-0.77 0,-0.42 -0.14,-0.75 0,-1.22 0,-0.92 0.42,-1.78 0.75,-2.35 0.35,-0.56 0.8,-1.16 1.13,-1.6 0.44,-0.53 0.98,-0.88 1.33,-1.47 0.49,-0.72 0.78,-1.38 1.52,-1.94 0.2,-0.24 0.61,-0.41 1.02,-0.67 1.11,-0.54 2.43,-1.02 3.85,-1.2 0.74,2.58 1.34,5.34 2.02,7.84 0.17,0.42 0.21,0.8 0.17,1.15 -0.41,-0.08 -1.53,-0.35 -1.85,-0.08 -0.49,0.08 0,0.79 0.4,0.79l-0.14 0c-0.26,0.16 -0.45,0.23 -0.65,0.33 -0.1,0.09 -0.24,0.09 -0.24,0.09 -0.24,0.09 -0.42,0.2 -0.53,0.53 -0.22,0.33 0.11,0.68 0.53,0.51 0.24,-0.18 0.53,-0.56 0.8,-0.66 0.57,-0.29 1.36,-0.38 2.09,-0.38 0.25,1.1 0.57,2.17 0.81,3.38 -0.74,0.07 -1.54,0.18 -2.24,0 -0.51,-0.24 -0.78,-0.24 -1.17,0.07 0.15,0.17 0.15,0.17 0.15,0.26 0,0.54 -0.68,0.41 -0.77,0 -0.09,0.61 0.57,1.04 1.13,1.04l0.23 0c0.99,0 2.11,-0.24 2.91,-0.43 0,0.27 -0.42,0.27 -0.57,0.27zm1.52 -0.47l0 -0.17c0.08,0 0.23,-0.06 0.35,-0.06 0.94,-0.27 2.06,-0.33 3.19,-0.44 0,0 0.36,0 0.36,0.17 -1.24,0.27 -2.61,0.33 -3.9,0.5zm2.92 -1.15c0.42,-0.06 0.98,0.08 1.25,-0.06 0.21,-0.25 0.45,-0.33 0.55,-0.47 -0.2,-0.19 -0.34,-0.37 -0.51,-0.46 -0.07,-0.14 -0.22,-0.14 -0.31,-0.26 -0.18,-0.12 -0.36,-0.27 -0.41,-0.45 -0.3,-0.17 -0.57,-0.33 -0.77,-0.56 -0.12,-0.18 -0.21,-0.33 -0.39,-0.51 -0.94,-0.11 -2.25,-0.29 -3.28,-0.2 0.23,1.04 0.5,2.07 0.74,3.05 1,-0.08 2.07,-0.08 3.13,-0.08zm2.41 2.11c-0.18,0.55 0.62,0.4 0.41,0 -0.06,-0.16 -0.33,-0.16 -0.33,0.08l-0.08 -0.08zm3.09 -2.11c-0.16,0.48 -0.16,0.98 -0.67,1.35 -0.06,0 -0.23,0 -0.33,0.1 -0.38,0.24 -0.34,1.46 -1.27,0.97 -0.18,-0.47 0.44,-0.57 0.66,-0.31 0,-0.26 -0.34,-0.33 -0.66,-0.33 0.06,-0.43 0.47,-0.68 0.76,-0.86 -0.06,-0.18 0,-0.27 0,-0.27 -0.25,-0.17 -0.44,0 -0.4,0.33 0,0 -0.44,0.3 -0.54,0.56 -0.15,0.24 -0.15,0.57 -0.38,0.24 -0.09,-0.8 0.48,-0.8 0.62,-1.3l-0.06 0c-0.41,-0.12 -0.33,0.5 -0.65,0.5 -0.17,0.3 -0.17,0.64 -0.35,0.97 -0.13,0.16 -0.21,0 -0.21,0 -0.09,-0.1 -0.09,-0.17 -0.09,-0.33l0.17 0c-0.24,-0.52 0.13,-0.97 0.39,-1.14 -0.26,-0.48 -0.56,0.26 -0.69,0.5 -0.01,0.17 0,0.47 -0.1,0.47 -0.18,0 -0.1,-0.71 0.02,-0.97 0.08,-0.25 0.3,-0.31 0.38,-0.48 -0.17,0 -0.38,0.17 -0.5,0.36 0,0.12 -0.08,0.29 -0.08,0.29 -0.3,0 -0.06,-0.48 -0.06,-0.57 0.24,-0.14 0.33,-0.32 0.64,-0.32 0.13,-0.07 0.13,-0.29 0.31,-0.29 0.41,-0.27 1.18,-0.27 1.71,-0.19 0.24,0.09 0.56,0.19 0.81,0.19 0.31,0 0.7,0 0.76,0.22 0,0.07 -0.06,0.25 -0.19,0.31zm-2.6 -1.37c0.25,-0.5 0.48,-0.98 0.65,-1.51l0.04 0c-0.12,0.53 -0.36,1.01 -0.56,1.63l-0.13 -0.12zm4.35 -16.64c0.06,2.44 -0.17,4.78 -0.17,7.09 -0.06,2.76 -0.29,5.51 -0.41,7.95 -0.53,0 -1.04,-0.26 -1.64,-0.33 -0.59,-0.09 -1.2,-0.09 -1.88,-0.09 1.01,-3.05 2.07,-6.23 2.68,-9.43 0.42,-2.04 0.9,-3.98 1.25,-5.99l0 -0.09c0.23,-0.09 0.17,0.79 0.17,0.89zm-0.68 -2.85c-0.28,0.42 -0.68,0.84 -0.94,1.21 -0.21,0.24 -0.39,0.42 -0.6,0.57 1.11,-3.08 2.49,-5.96 3.44,-9.2 0.47,-1.6 0.9,-3.31 1.37,-5.01 0.41,-1.68 0.66,-3.68 0.67,-5.66l0.04 -0.06 0 0.06c0.43,0.17 0.52,0.55 0.59,0.85 0.37,1.07 0.59,2.35 0.89,3.6 0.14,0.91 0.24,1.68 0.24,2.58 0.06,0.49 0.06,0.88 0.06,1.37 0.05,0.59 0.13,0.93 0.13,1.38 -0.13,0.6 -0.52,1.04 -0.77,1.54 -0.25,0.46 -0.55,0.87 -0.85,1.36 -0.51,0.9 -1.18,1.77 -1.8,2.44 -0.87,1.04 -1.57,2.08 -2.47,2.97zm3.09 7.46c0.15,1.51 0.18,3.13 0.67,4.28 0.1,-1.15 0.17,-2.15 0.22,-3.31 0.52,-3.95 1.13,-7.06 0.96,-11.4 -0.07,-0.09 -0.07,-0.17 -0.07,-0.09 0,0.33 -0.27,0.54 -0.3,0.98 -0.16,0.07 -0.3,0.42 -0.59,0.48 -0.05,0.12 -0.3,0.23 -0.54,0.39 -0.26,0.42 -0.26,0.82 -0.41,1.31 -0.04,0.23 -0.04,0.64 -0.04,0.91 -0.09,2.17 -0.09,4.32 0.1,6.45zm0.67 7.66c-0.22,-0.96 -0.58,-2.07 -0.77,-3.19 -0.26,-1.15 -0.26,-2.53 -0.43,-3.68 -0.13,-1.86 -0.33,-3.86 -0.39,-5.83 -0.03,-0.55 0.09,-1.58 -0.24,-1.85 -0.17,-0.07 -0.38,0.11 -0.5,0.17 -0.09,2.5 0.06,5.14 0.33,7.51 0.26,2.53 0.71,4.86 1.23,7.06 0.25,-0.09 0.55,-0.09 0.77,-0.19zm-2.74 1.56c0.17,-2.93 0.17,-5.9 0.32,-8.81l0 -0.1 0.09 0.1c0.06,0.17 0.06,0.38 0.06,0.49 0.18,1.23 0.27,2.42 0.44,3.71 0.21,1.35 0.63,2.58 0.71,3.96 -0.38,0.05 -0.71,0.22 -1.04,0.38 -0.11,0 -0.26,0.27 -0.58,0.27zm6.89 4.35c-0.47,-0.23 -1.01,-0.65 -1.71,-0.8 -0.18,-0.09 -0.44,-0.17 -0.6,-0.17 -0.1,0.41 0.29,0.32 0.51,0.41 0.49,0 0.91,0.15 1.18,0.39 0.24,0.08 0.6,0.36 0.51,0.48 -0.27,0.44 -0.9,-0.25 -0.95,-0.4 -0.22,0 -0.25,-0.14 -0.41,-0.32l-0.55 0c-0.19,0 -0.29,-0.07 -0.43,-0.15 -0.09,0.47 0.74,0.33 1.09,0.47 0.03,0.09 -0.11,0.15 -0.11,0.33 0.11,0.07 0.16,0.18 0.19,0.24 0,0 -0.03,-0.17 0,-0.24 0.66,-0.18 0.66,0.57 0.19,0.69 -0.48,0.18 -0.89,-0.18 -1.22,-0.36 -0.66,-0.09 -1.1,0 -1.66,0 -0.4,-0.09 -0.58,-0.38 -0.95,-0.74 -0.26,-0.31 -0.76,-0.31 -1.23,-0.48 0.26,-0.42 0.38,-1.04 0.8,-1.39 0.17,-0.16 1.12,-0.62 1.68,-0.39 0.26,0.15 0.63,0.23 0.81,0.33 0.17,0.06 0.32,0.17 0.41,0.41 0.14,0 0.3,0.27 0.43,0.27 0.39,0.12 0.96,0.26 1.35,0.35 0.05,0.1 0.29,0.1 0.29,0.27 0,0 0,0.24 -0.09,0.24 -0.15,0 -0.2,-0.14 -0.3,-0.24 -0.29,-0.27 -0.86,-0.17 -1.25,-0.36 0,0.09 0.22,0.09 0.22,0.19 0.62,0 1.13,0.41 1.62,0.74 0.16,0 0.39,0.14 0.18,0.23zm16.35 -1.6c0.06,0.44 0.56,0.53 0.47,1.19 -0.14,0.24 -0.33,0.41 -0.56,0.6 0.09,-0.28 0,-0.6 -0.2,-0.75 0,0 -0.07,0.15 -0.12,0.15 -0.24,0 -0.16,-0.24 -0.39,-0.15 -0.09,0.15 0.15,0.33 0.15,0.56 0.08,0.75 -0.33,0.98 -0.99,0.98 0.1,-0.23 0.48,-0.17 0.48,-0.41 0.18,-0.26 -0.15,-0.57 -0.38,-0.66 0,0 0,0.09 -0.1,0.15 -0.25,-0.06 -0.37,-0.47 -0.7,-0.23 0.21,0.08 0.33,0.48 0.06,0.74 -0.24,0.18 -0.48,0.24 -0.79,0.24 -0.64,0 -1.14,-0.24 -1.37,-0.5 -0.16,-0.12 -0.29,-0.4 -0.42,-0.54 -0.18,-0.25 -0.56,-0.25 -0.71,-0.42 -0.18,-0.05 -0.18,-0.32 -0.34,-0.42 -0.17,-0.09 -0.46,-0.23 -0.75,-0.35 -0.77,-0.27 -1.84,-0.62 -2.79,-0.68 -1.65,-0.18 -3.43,-0.1 -5,-0.42 -0.54,-0.14 -1.13,-0.24 -1.63,-0.29 -0.57,-0.13 -1.16,0.15 -1.63,0.05 -0.44,-0.05 -0.79,-0.38 -0.85,-0.8 -0.24,-1.22 -0.43,-2.43 -0.9,-3.23 -0.16,-0.32 -0.2,-0.82 -0.16,-1.45 0.08,-0.42 0.23,-0.81 0.3,-1.31 0.11,-0.41 0.11,-0.95 0.17,-1.44 0.05,-0.81 0.35,-1.61 0.78,-2 0.13,0.03 0.31,0.39 0.48,0.54 0.42,0.14 0.87,0.23 1.24,0.65 0.19,0.1 0.3,0.36 0.42,0.48 0.48,0.88 0.24,2.22 0.65,3.08 0,0.15 0.18,0.26 0.18,0.41 -0.59,0 -1.25,0 -1.57,0.39 0.24,0.41 0.89,0.09 1.39,0.09 0.46,0 1.07,0.14 1.46,0.41 0.23,0.15 0.47,0.56 0.83,0.62 0.49,0.24 1.38,0.33 1.97,0.33 0.84,0.08 1.64,0.18 2.28,0.41 0.99,0.16 1.93,0.58 2.87,0.96 0.19,0 0.33,0 0.42,0.27 0,0 0.24,0.08 0.41,0.14 0.3,0.27 0.74,0.18 1.13,0.27 0.42,0.04 0.65,0.21 1.14,0.21 0.14,0.26 0.73,0.33 1.06,0.59 0.12,0 0.18,0.09 0.37,0.2l0.75 0c0.19,0.13 0.48,0.28 0.62,0.42 0.53,0.32 0.86,0.59 0.86,1.22 -0.23,-0.12 -0.23,-0.63 -0.59,-0.3zm4.5 -0.09c0.09,0 0.24,0.09 0.24,0.09l0 -0.44c-0.39,-0.48 -1.93,-0.57 -2.87,-0.48 -0.61,0 -1.24,-0.09 -1.51,0.09 0.47,0.15 1.01,0.23 1.59,0.33 0.53,0.06 1.1,0.17 1.6,0.17 0.39,0.06 0.68,0.06 0.95,0.24zm3.84 -1.45c0.16,0.09 0.48,0.48 0.45,0.62 -0.08,0.09 -0.18,0.24 -0.29,0.24 -0.26,0 -0.26,-0.86 -0.86,-0.77 0,0 -0.15,0 -0.15,0.11 -0.22,0.51 0.79,0.74 0.5,1.4 -0.09,0.24 -0.41,0.38 -0.83,0.38 0,-0.14 0.11,-0.26 0.11,-0.38 0,-0.5 -0.61,-0.98 -1,-0.5 0.04,0.35 0.39,0.62 0.24,0.97 -0.2,0.27 -0.74,0.27 -0.91,0l0.32 0c0.12,0 0.12,-0.09 0.21,-0.23 0,-0.24 -0.21,-0.24 -0.42,-0.3 -0.11,-0.09 -0.3,-0.33 -0.39,-0.44 0.09,-0.77 -0.73,-1.01 -1.53,-1.01 -1.31,-0.09 -2.88,-0.28 -4.15,-0.35 0.07,-0.63 -0.53,-0.81 -1.03,-0.87 -0.74,-0.08 -1.37,-0.08 -2.17,-0.35 -0.23,0 -0.82,-0.33 -0.88,-0.38 0,-0.42 0.38,-0.58 0.65,-0.65 0.72,-0.51 1.45,-1.06 2.02,-1.63 1.41,0.34 2.4,0.9 3.54,1.47 0.3,0.23 0.54,0.33 0.9,0.39 0.27,0.27 0.52,0.42 0.97,0.42 1.33,0.38 3.38,0 4.54,0.73 0.32,0.33 0.64,0.62 0.67,1.13 -0.24,0 -0.24,-0.59 -0.57,-0.59 -0.1,0 -0.29,0.17 -0.29,0.17 0,0.23 0.25,0.23 0.35,0.42zm-12.4 2.58c-0.54,-0.41 -0.54,-0.86 -0.98,-1.13 0,0 -0.24,-0.24 -0.3,-0.35 -0.17,0 -0.23,-0.06 -0.41,-0.06 -0.42,-0.33 -0.91,-0.42 -1.36,-0.51 -0.17,-0.05 -0.42,-0.05 -0.5,-0.05 -0.23,-0.1 -0.44,-0.28 -0.62,-0.39 -0.71,-0.09 -1.61,0 -2.35,-0.09 -1.2,0 -2.27,-0.19 -3.4,-0.33 -0.47,-0.09 -1.03,-0.09 -1.47,-0.43 -0.22,0 -0.39,-0.04 -0.54,-0.04 -0.44,-0.09 -0.8,-0.09 -1.03,0 -0.22,0.04 -0.34,0.21 -0.45,0.21 -0.21,0 -0.35,-0.3 -0.68,-0.21 -0.22,0.04 -0.35,0.38 -0.18,0.54 0.09,0.07 0.41,0.26 0.44,0.35 0.36,0.11 0.62,-0.09 0.87,-0.09 0.88,-0.26 1.83,0.09 2.57,0.33 2.09,0.29 4.67,0.15 6.51,0.71 0.33,0.06 0.66,0.06 0.92,0.23 0.85,0.33 1.45,0.8 2.07,1.31 0.42,0.39 0.74,0.8 1.55,1.04 0.33,0 0.83,0 0.83,-0.48 0.03,-0.48 -0.99,-0.41 -1.49,-0.56zm-21.71 -59.56c-0.03,-0.59 0.43,-0.32 0.74,-0.32 0.09,-0.12 0.25,-0.27 0.25,-0.33 0,-0.33 -0.22,-0.51 -0.22,-0.56 -0.03,-0.51 0,-1.64 0.22,-2.02 0.24,-0.33 1.38,-0.66 1.86,-0.16 0.09,0 0.15,0.16 0.21,0.39 -0.36,-0.56 -1.98,-0.39 -1.83,0.38 0,0 0.44,-0.23 0.79,-0.23 0.44,0 0.74,0.07 1.06,0.36 0.19,0.16 0.19,-0.13 0.33,-0.13 0,0 -0.06,0.19 -0.06,0.29l-0.08 0c-0.09,0.14 -0.27,0.14 -0.27,0.22 -0.63,0.66 -1.69,0.18 -1.69,0.18 -0.08,0.06 -0.12,0.21 -0.12,0.48 0,0.47 0.59,1.19 0.04,1.51 -0.24,0.13 -0.6,-0.06 -0.87,-0.06 -0.18,0 -0.2,0.06 -0.36,0zm2.41 -2.49l0.03 0c0.09,0.06 0.26,0.06 0.26,0.16l0.15 0c0,0 -0.15,0.22 -0.48,0.4 0.04,-0.18 0.09,-0.18 0.09,-0.4 0,0 -0.02,-0.1 -0.05,-0.16zm-0.45 0c-0.18,0.06 -0.18,0.16 -0.18,0.16 0,0.22 0.18,0.22 0.24,0.4 -0.41,0 -0.71,-0.26 -0.71,-0.26 0,0 0.2,-0.24 0.65,-0.3zm-3.87 0.62c0.14,0 0.52,0.15 0.78,0.15 0.9,0 1.13,-0.61 1.29,-0.61 0,-0.67 -0.39,-1.23 -1.04,-1.41 -0.25,0 -0.59,0.18 -0.8,0.18 -0.23,0.17 -0.35,0.33 -0.48,0.56 0.25,0 0.65,-0.39 1.43,-0.33 0.35,0.1 0.7,0.55 0.5,0.71 -0.23,-0.16 -0.26,-0.23 -0.39,-0.23 -0.64,-0.38 -1.29,0.18 -1.54,0.52l-0.14 -0.1c0.06,0.24 0.14,0.32 0.39,0.56zm1.03 -0.62c0.15,0.06 0.26,0.06 0.5,0.16 0,0 -0.18,0.22 -0.52,0.4 0.02,-0.18 0.17,-0.18 0.17,-0.4 0,0 -0.06,-0.1 -0.15,-0.16zm-0.44 0l-0.07 0.16c0,0.22 0.07,0.22 0.22,0.4 -0.51,0 -0.74,-0.26 -0.74,-0.26 0,0 0.14,-0.24 0.59,-0.3z"/>
    <polygon class="fil6" points="1163.72,1335.58 1129.41,1594.04 1163.84,1575.76 "/>
    <polygon class="fil6" points="1090.3,1629.59 957.88,1586.17 1097.95,1667.18 "/>
    <polygon class="fil6" points="1369.63,1586.18 1210.09,1603.56 1237.41,1629.51 "/>
    <polygon class="fil6" points="1209.63,1715.71 1293.94,1830.16 1225.17,1681.78 "/>
    <polygon class="fil6" points="1033.59,1830.17 1156.11,1721.21 1117.81,1715.66 "/>
    <polygon class="fil6" points="1168.54,1718.49 1207.48,1712.91 1223.4,1677.92 "/>
    <polygon class="fil6" points="1104.25,1677.91 1119.8,1712.84 1158.93,1718.47 "/>
    <polygon class="fil6" points="1121.63,1604.6 1093.75,1630.73 1101.54,1668.59 "/>
    <polygon class="fil6" points="1205.88,1604.54 1233.7,1630.72 1225.97,1668.6 "/>
    <polygon class="fil6" points="1198.47,1598.71 1163.86,1579.79 1129.02,1598.71 "/>
    <path class="fil7" d="M1897.52 1637.7c-5.14,17.21 -3.75,10.74 -11.13,39.23 -6.96,26.94 -13.87,53.87 -19.11,71.54 -1.65,3.42 -3.74,6.89 -6.32,10.22 -3.08,4.17 -6.81,8.05 -10.9,11.86 -22.89,20.05 -57.26,31.8 -86.87,27.32 -2.27,-0.3 -5.14,-0.98 -8.48,-1.7 -18.72,-4.54 -31.12,-13.48 -37.99,-25.22 -7.33,-12.36 -9.42,-28.28 -6.75,-45.75 0.3,-2.42 0.98,-5.55 1.78,-9.25 11.61,-45.68 23.01,-91.27 34.51,-136.95 4.54,-23.25 -44.34,-29.25 -54.71,0.83l-31.01 123.66c-1.02,3.97 -1.86,8.48 -2.64,13.82 -4.41,29.25 -0.21,57.27 13.42,80.47 14.03,23.88 37.4,41.82 70.89,49.8 3.57,0.88 8,1.62 13.09,2.39 44.61,6.83 96.07,-10.24 129.55,-39.88 6.82,-6.09 12.97,-12.69 18.16,-19.49 5.47,-7.27 10.03,-15.04 13.56,-23.28l0.09 -0.15 1.03 -2.7c5.15,-17.38 12.5,-45.83 19.94,-74.39 6.98,-27.5 9.59,-36.87 14.82,-54.67 5.3,-24.37 -42.11,-34.65 -54.92,2.29z"/>
    <path class="fil7" d="M3101.95 1744.87l29.14 -138.81 32.88 0 -15 71.64 38.21 -35.24 39.31 0 -43.67 39.11 24.94 63.83 -37.12 0 -14.93 -41.07 -15.1 12.97 -5.83 27.58 -32.83 0zm-120.4 0l21.47 -102.41 32.76 0 -2.92 14.06c4.67,-5.66 9.88,-9.88 15.49,-12.55 5.67,-2.7 12.01,-4.09 18.96,-4.09 11.91,0 20.11,3.06 24.12,8.97 4.1,6.03 4.74,15.86 1.91,29.35l-14 66.68 -33.48 0 10.87 -51.52c2.47,-12.19 3.08,-19.81 1.8,-23.02 -1.4,-3.3 -4.67,-5.01 -10.06,-5.01 -5.89,0 -10.58,1.94 -14.09,5.89 -3.56,3.81 -6.19,10.27 -8.01,18.85l-11.56 54.81 -33.25 0zm-17.36 0l0.9 -3.82c-1.5,-0.9 -2.49,-2.58 -2.72,-5.26 -0.36,-2.76 0.05,-6.29 0.98,-11.06l8.19 -38.74c1.93,-9.84 3.02,-16.96 2.96,-21.37 -0.06,-4.4 -1.03,-8.29 -2.71,-11.4 -2.61,-4.6 -6.82,-7.86 -12.62,-9.96 -5.83,-2.27 -13.18,-3.39 -22.3,-3.39 -14.6,0 -26.39,2.82 -35.59,8.58 -9.04,5.63 -15.64,14.11 -19.76,25.77l30.8 0c1.57,-3.8 3.88,-6.65 7.14,-8.64 3.11,-1.9 7.11,-2.93 11.9,-2.93 4.38,0 7.52,0.84 9.48,2.44 1.86,1.45 2.49,3.71 1.86,6.7l-0.53 2.43c-0.68,3.55 -7.1,6.42 -19.01,8.25 -8.11,1.27 -14.62,2.49 -19.96,3.62 -9.46,2.1 -17.05,5.85 -22.73,11.24 -5.54,5.34 -9.24,12.19 -11,20.59 -1.88,9.31 -0.61,16.61 3.95,22.19 4.74,5.3 11.9,8.14 21.79,8.14 6.25,0 12.31,-1.15 18.12,-3.54 5.83,-2.18 11.49,-5.67 17.17,-10.37 -0.18,1.88 -0.29,3.63 -0.29,5.53 -0.17,1.65 -0.17,3.44 -0.12,5.01l34.09 0zm-26.7 -48.25c-2.9,1.57 -7.76,3.14 -14.5,4.5 -3.26,0.66 -5.75,1.12 -7.46,1.55 -4.31,1.21 -7.47,2.58 -9.49,4.36 -2.03,1.78 -3.31,4.21 -3.93,7.11 -0.84,3.74 -0.23,6.62 1.54,8.87 1.87,2.2 4.59,3.33 8.24,3.33 5.77,0 10.68,-1.6 14.97,-5.01 4.27,-3.31 7.05,-7.57 8.14,-12.93l2.49 -11.78zm-206.7 48.25l29.02 -138.81 67.26 0c16.11,0 27.39,2.97 33.86,8.75 6.49,5.9 8.44,14.72 5.89,26.85 -1.54,7.45 -4.55,13.65 -8.99,18.48 -4.47,4.96 -10.43,8.67 -18.01,11.25 7.58,2.09 12.92,5.84 16.08,11.23 3.14,5.37 3.88,12.05 2.19,19.97 -1.65,7.85 -4.86,14.81 -9.71,21.09 -4.92,6.23 -10.99,11.06 -18.09,14.65 -4.74,2.32 -10.37,3.94 -16.68,5.11 -6.27,1.01 -15.96,1.45 -28.71,1.45l-54.12 0zm39.64 -27.58l26.8 0c8.49,0 14.74,-1.19 18.5,-3.54 3.88,-2.34 6.36,-6.31 7.57,-11.92 1.17,-4.99 0.33,-8.79 -2.47,-11.37 -2.67,-2.42 -7.21,-3.79 -13.48,-3.79l-30.43 0 -6.48 30.61zm11.93 -56.89l28.52 0c6.01,0 10.81,-1.17 14.1,-3.39 3.39,-2.25 5.67,-5.69 6.59,-10.1 0.86,-4.32 0.23,-7.36 -2.07,-9.61 -2.34,-2.06 -6.2,-3.27 -11.51,-3.27l-30.15 0 -5.47 26.37zm-218.91 84.47l33.3 0 11.51 -54.81c1.84,-8.58 4.49,-15.04 8.02,-18.85 3.5,-3.95 8.29,-5.89 14.07,-5.89 5.51,0 8.85,1.71 10.11,5.01 1.34,3.14 0.7,10.83 -1.8,23.02l-10.86 51.52 33.55 0 13.92 -66.68c2.89,-13.49 2.2,-23.32 -1.85,-29.35 -4.12,-5.91 -12.21,-8.97 -24.22,-8.97 -6.9,0 -13.29,1.39 -18.86,4.09 -5.72,2.67 -10.94,6.89 -15.67,12.55l2.99 -14.06 -32.7 0 -21.52 102.41zm-111.53 -51.43c3.64,-17.06 11.16,-30.45 22.89,-40.14 11.57,-9.62 25.85,-14.55 42.78,-14.55 16.96,0 29.29,4.93 36.85,14.55 7.6,9.69 9.59,23.09 6.07,40.14 -3.65,17.24 -11.28,30.69 -22.92,40.36 -11.73,9.68 -26.03,14.51 -43.01,14.51 -17.05,0 -29.31,-4.83 -36.83,-14.45 -7.51,-9.73 -9.47,-23.13 -5.83,-40.42zm34.33 0c-2.03,9.47 -1.74,16.67 0.57,21.6 2.37,5.1 6.83,7.59 13.2,7.59 6.31,0 11.79,-2.58 16.35,-7.59 4.54,-5.1 7.88,-12.19 9.8,-21.6 1.88,-9.1 1.65,-16.22 -0.82,-21.32 -2.37,-5.02 -6.81,-7.5 -13.19,-7.5 -6.41,0 -11.89,2.48 -16.32,7.43 -4.49,5.07 -7.63,12.2 -9.59,21.39zm-96.09 51.43l21.5 -102.41 33.19 0 -21.5 102.41 -33.19 0zm23.43 -111.81l5.65 -27.06 33.31 0 -5.61 27.06 -33.35 0zm-143.95 111.81l33.31 0 11.52 -54.81c1.86,-8.58 4.46,-15.04 8.05,-18.85 3.58,-3.95 8.26,-5.89 14.03,-5.89 5.45,0 8.8,1.71 10.19,5.01 1.28,3.14 0.62,10.83 -1.86,23.02l-10.81 51.52 33.37 0 14.11 -66.68c2.82,-13.49 2.14,-23.32 -1.92,-29.35 -4.09,-5.91 -12.19,-8.97 -24.1,-8.97 -6.98,0 -13.35,1.39 -19.05,4.09 -5.53,2.67 -10.8,6.89 -15.48,12.55l2.87 -14.06 -32.65 0 -21.59 102.41zm-107.99 -138.81l34.96 0 -18.2 86.76c-1.98,9.42 -1.64,16.26 1.14,20.36 2.79,4.03 8.23,6.13 16.55,6.13 8.21,0 14.61,-2.1 19.01,-6.13 4.39,-4.1 7.65,-10.94 9.75,-20.36l18.02 -86.76 35.36 0 -17.27 82.46c-2.48,11.71 -5.54,20.85 -9.19,27.79 -3.8,6.99 -8.71,12.79 -14.93,17.56 -6.46,4.94 -13.62,8.66 -21.36,11.25 -7.76,2.42 -16.22,3.62 -25.35,3.62 -9.14,0 -16.92,-1.2 -23.74,-3.62 -6.63,-2.59 -12.24,-6.31 -16.67,-11.25 -4.23,-4.83 -6.78,-10.77 -7.69,-17.62 -0.84,-6.97 -0.06,-16.25 2.36,-27.73l17.23 -82.46z"/>
    <path class="fil7" d="M3190.08 1844.43c-2.73,2.87 -5.78,5.02 -9.22,6.53 -3.33,1.53 -6.8,2.27 -10.28,2.27 -5.32,0 -9.31,-1.44 -11.63,-4.2 -2.54,-2.85 -3.23,-6.73 -2.08,-11.57 1.04,-5.49 3.54,-9.46 7.36,-12.19 3.75,-2.77 10.06,-4.64 18.85,-5.67 0.27,0 0.62,-0.06 1.16,-0.14 7.22,-0.89 11.25,-3.01 11.95,-6.18 0.54,-2.49 0,-4.45 -1.5,-5.69 -1.51,-1.16 -4.15,-1.7 -7.85,-1.7 -3.43,0 -6.24,0.61 -8.34,2.06 -2.13,1.48 -3.59,3.55 -4.1,6.22l0 0.42 -10.72 0 0.19 -0.89c1.04,-5.25 3.88,-9.43 8.37,-12.53 4.66,-3.08 10.25,-4.62 17.03,-4.62 7.05,0 12.03,1.31 15.01,3.98 3.09,2.69 4.05,6.55 3.03,11.71l-5.64 26.43c-0.37,2.05 -0.37,3.32 -0.14,4.04 0.39,0.59 1.16,0.98 2.43,0.98 0.18,0 0.38,-0.19 0.73,-0.19 0.24,0 0.74,0 1.45,-0.05l-1.68 8.34c-1.1,0.24 -2.12,0.34 -3.04,0.47 -1.05,0.18 -2.06,0.23 -2.85,0.23 -3.47,0 -5.84,-0.7 -7.29,-1.92 -1.27,-1.37 -1.69,-3.47 -1.2,-6.14zm3.57 -19.65c-2.6,1.32 -6.6,2.26 -11.91,2.91 -1.91,0.31 -3.37,0.57 -4.21,0.74 -2.8,0.57 -4.87,1.49 -6.5,2.89 -1.48,1.21 -2.54,3 -2.93,5.19 -0.53,2.35 -0.17,4.3 0.97,5.63 1.29,1.31 3.23,1.96 6.01,1.96 4.18,0 7.83,-1.13 11.11,-3.56 3.29,-2.43 5.27,-5.25 6.02,-9.04l1.44 -6.72zm-46.08 -45.99l11.39 0 -2.43 11.54 -11.4 0 2.44 -11.54zm-4.09 19.58l-11.16 53.09 11.34 0 11.09 -53.09 -11.27 0zm-20.31 -19.58l10.91 0 -15.3 72.67 -10.72 0 1.45 -6.85c-2.93,2.87 -5.84,5.16 -8.85,6.52 -2.88,1.36 -6.01,2.1 -9.53,2.1 -6.76,0 -11.72,-2.57 -14.81,-7.68 -3.17,-5.25 -3.76,-12 -2.07,-20.38 1.78,-8.65 5.3,-15.51 10.62,-20.67 5.28,-5.34 11.41,-7.95 18.11,-7.95 3.55,0 6.53,0.66 9.14,2.05 2.37,1.39 4.35,3.38 5.56,6.32l5.49 -26.14zm-19.73 27.65c-4.32,0 -8.14,1.69 -11.22,5.01 -3.11,3.24 -5.29,7.86 -6.57,13.83 -1.22,5.57 -0.94,10.08 0.92,13.32 1.77,2.99 4.86,4.71 9.24,4.71 4.53,0 8.28,-1.72 11.45,-4.77 3.09,-3.18 5.27,-7.92 6.55,-13.91 1.33,-5.97 1.03,-10.51 -0.83,-13.56 -1.61,-3.11 -4.86,-4.63 -9.54,-4.63zm-37.62 11.16c1.53,-7.51 1.27,-12.93 -0.94,-16.09 -2.27,-2.99 -6.71,-4.51 -13.43,-4.51 -3.34,0 -6.57,0.78 -9.59,2.17 -3.15,1.44 -6.01,3.54 -8.38,6.29l1.46 -7.09 -10.78 0 -11.21 53.09 11.21 0 6.42 -30.87c0.99,-4.36 2.96,-7.77 5.83,-10.27 2.91,-2.42 6.44,-3.73 10.85,-3.73 3.05,0 5.18,0.92 6.51,2.58 1.33,1.75 1.63,4.12 0.95,7.36l-7.26 34.93 11.23 0 7.13 -33.86zm-64.42 -38.8l12.19 0 -15.27 72.67 -12.08 0 15.16 -72.67zm-35.96 -0.23l-1.87 9.51 -2.46 -0.14c-0.47,-0.09 -1.12,-0.09 -1.44,-0.09 -2.18,0 -3.54,0.41 -4.48,1.27 -1.03,0.87 -1.72,2.52 -2.25,5.2l-0.91 4.06 9.28 0 -1.64 8.22 -9.33 0 -9.42 44.87 -11.22 0 9.47 -44.87 -8.14 0 1.69 -8.22 8.14 0 1.33 -6.56c1.1,-4.68 2.84,-8.18 5.66,-10.41 2.66,-2.2 6.31,-3.4 10.92,-3.4 1.22,0 3.38,0.14 6.44,0.47l0.23 0.09z"/>
    <path class="fil7" d="M2867.95 1830.42c0,-10.26 3,-18.74 9.18,-25.36 6.13,-6.56 13.95,-9.91 23.53,-9.91 7.65,0 13.54,2.16 18.02,6.35 4.31,4.22 6.51,9.94 6.51,17.23 0,10.27 -2.99,18.58 -9.12,25.19 -6.2,6.65 -14.01,9.98 -23.65,9.98 -7.83,0 -13.78,-2.12 -18.11,-6.27 -4.29,-3.94 -6.36,-9.76 -6.36,-17.21zm31.68 -27.05c-3.17,0 -6.03,0.63 -8.56,1.87 -2.49,1.34 -4.61,3.29 -6.61,5.87 -1.77,2.77 -3.34,5.76 -4.44,9.38 -1.15,3.65 -1.63,7.2 -1.63,10.71 0,4.65 1.16,8.31 3.64,10.79 2.55,2.62 6.08,3.83 10.73,3.83 6.38,0 11.72,-2.61 15.72,-7.95 4.05,-5.16 6.08,-11.96 6.08,-20.28 0,-4.65 -1.23,-8.26 -3.84,-10.61 -2.48,-2.42 -6.24,-3.61 -11.09,-3.61z"/>
    <polygon class="fil8" points="1531.08,1852.71 1520.18,1852.71 1520.18,1508.24 1531.08,1508.24 "/>
    <polygon class="fil8" points="3374.49,1852.71 3363.59,1852.71 3363.59,1508.24 3374.49,1508.24 "/>
    <path class="fil9" d="M4867.7 1692.91c1.5,-11.35 10.67,-26.38 29.51,-26.38 15.49,0 26.53,10.02 27.66,26.38l-57.16 0zm30.24 -54.06c-38.97,0 -63.93,31.11 -63.93,66.76 0,37.25 27.02,66.46 66.25,66.46 20.8,0 40.21,-8.21 52.02,-21.73l-17.08 -19.92c-8.94,8.37 -19.52,13.45 -31.83,13.45 -18.36,0 -33.42,-11.19 -34.9,-28.2l88.46 0c1.15,-4.99 1.55,-9.84 1.55,-14.21 0.02,-33.69 -23.04,-62.62 -60.53,-62.62z"/>
    <polygon class="fil9" points="4583.4,1588.67 4583.4,1769.48 4691.53,1769.48 4691.53,1737.15 4617.8,1737.16 4617.81,1588.67 "/>
    <path class="fil9" d="M4805.87 1631.11c0,-12.75 9.15,-16.32 19.14,-16.32 2.8,0 6.41,0.26 10.09,1.04l0 -26.39c-6.96,-2.3 -14.47,-3.37 -21.55,-3.37 -32.35,0 -40.54,24.16 -40.53,46.53l0 8.57 -20.96 0 0 29.74 20.96 0 0 98.55 32.85 0 0 -98.55 27.16 0 0 -29.74 -27.16 0 0 -10.07z"/>
    <polygon class="fil9" points="4705.57,1769.48 4738.43,1769.48 4738.43,1641.18 4705.57,1641.18 "/>
    <path class="fil9" d="M4722.01 1586.08c-10.97,0 -19.41,8.9 -19.41,19.49 0,10.6 8.57,19.09 19.54,19.09 10.97,0 19.26,-8.64 19.26,-19.23 0,-10.59 -8.42,-19.35 -19.39,-19.35z"/>
    <path class="fil9" d="M3871.14 1737.67l-24.07 0 0 -117.17 24.18 -0.01c23.58,0 55.75,14.22 55.75,58.73 0,44.68 -32.52,58.46 -55.86,58.45zm-2.54 -148.99l-63.2 0c5.37,17.03 7.53,36.45 7.53,61.06l0 61.55c0,24.61 -1.86,41.17 -7.23,58.2l62.83 0c53.98,0 93.13,-37.89 93.13,-90.28 0,-52.33 -39.16,-90.52 -93.06,-90.52z"/>
    <path class="fil9" d="M4407.38 1638.85c-21.77,0 -33.21,13.35 -36.72,21.47l-0.79 0 0 -71.65 -33.11 0 0 180.81 32.85 0 0 -73.25c0,-7.43 4.73,-26.08 25.1,-26.08 9.03,0 23.8,3.79 23.8,26.13l0 73.2 32.85 0 0 -77.84c0,-35.16 -19.07,-52.79 -43.97,-52.79z"/>
    <path class="fil9" d="M4020.35 1746.71c-10.56,0 -17.8,-6.16 -17.8,-15.55 0,-9.96 8,-15.01 17.57,-17.3l27.99 -6.71 0.01 7.95c0.01,16.38 -11.47,31.6 -27.77,31.6zm59.28 22.77l0 -82c0,-31.39 -21.22,-48.63 -54.85,-48.63 -23.16,0 -39.99,14.73 -47.33,24.3l18.1 16.84c7.3,-8.56 16.43,-14.23 28.46,-14.23 13.67,0 24.08,7.74 24.08,21.98l-37.5 7.5c-21.97,4.39 -39.85,15.82 -39.85,39.58 0,23.36 17.55,37.29 39.06,37.25 15.42,-0.03 30.65,-6.95 37.51,-21.73l0.78 0 0 19.14 31.55 0z"/>
    <path class="fil9" d="M4273.37 1742.27c-18.95,0 -33.09,-15.79 -33.09,-37.2 0,-20.94 14.05,-36.46 32.34,-36.46 10.3,0 20.37,4.65 29.26,14.92l21.26 -18.34c-12.16,-17.7 -31.26,-26.33 -51.84,-26.33 -35.69,0 -63.87,26.91 -63.87,66.24 0,35.79 23.42,66.98 63.59,66.98 25.33,0 42.14,-12.21 53.32,-27.18l-21.47 -18.36c-8.31,11.51 -19.66,15.73 -29.5,15.73z"/>
    <polygon class="fil9" points="4101.1,1769.48 4133.95,1769.48 4133.95,1641.18 4101.1,1641.18 "/>
    <path class="fil9" d="M4117.54 1586.08c-10.97,0 -19.42,8.9 -19.42,19.49 0,10.6 8.58,19.09 19.55,19.09 10.96,0 19.26,-8.64 19.26,-19.23 0,-10.59 -8.43,-19.35 -19.39,-19.35z"/>
    <polygon class="fil9" points="4158.03,1769.48 4190.88,1769.48 4190.88,1641.18 4158.03,1641.18 "/>
    <path class="fil9" d="M4174.46 1586.08c-10.96,0 -19.41,8.9 -19.41,19.49 0,10.6 8.58,19.09 19.55,19.09 10.96,0 19.25,-8.64 19.25,-19.23 0,-10.59 -8.42,-19.35 -19.39,-19.35z"/>
    <polygon class="fil9" points="4472.62,1769.48 4505.48,1769.48 4505.48,1641.18 4472.62,1641.18 "/>
    <path class="fil9" d="M4489.06 1586.08c-10.96,0 -19.41,8.9 -19.41,19.49 0,10.6 8.57,19.09 19.54,19.09 10.97,0 19.26,-8.64 19.26,-19.23 0,-10.59 -8.42,-19.35 -19.39,-19.35z"/>
    <path class="fil10" d="M3618.09 1693.31c27.6,3.27 54.21,9.74 79.47,19.01 26.46,-21.6 43.05,-42.63 43.05,-56.75 0,-24.84 -52.11,-53.56 -122.31,-73.2 6.14,17.25 9.48,35.82 9.48,55.18 0,19.58 -3.41,38.34 -9.69,55.76z"/>
    <path class="fil11" d="M3505.55 1561.55c15.91,42.64 22.85,87.87 20.82,132.76 16.24,-2.29 32.83,-3.47 49.7,-3.47 14.22,0 28.25,0.84 42.02,2.48 6.27,-17.42 9.69,-36.18 9.69,-55.76 0,-19.36 -3.34,-37.92 -9.48,-55.18 -34.55,-9.66 -73.69,-17.15 -112.75,-20.83z"/>
    <path class="fil12" d="M3618.09 1693.31c-13.78,-1.64 -27.81,-2.49 -42.02,-2.49 -16.87,0 -33.46,1.19 -49.69,3.48 -1.57,34.75 -8.52,69.3 -20.83,102.3 52.31,-13.88 94.39,-52.87 112.54,-103.29z"/>
    <path class="fil13" d="M3505.55 1796.61c52.31,-13.88 94.38,-52.88 112.54,-103.29 27.6,3.27 54.21,9.74 79.48,19.01 -46.02,37.57 -121.86,76.82 -192.02,84.29z"/>
    <path class="fil14" d="M1814.82 1721.9c5.19,-17.29 3.7,-10.73 11.08,-39.36 6.9,-26.89 13.81,-53.82 19.09,-71.6 1.63,-3.32 3.74,-6.77 6.28,-10.19 3.18,-4.14 6.89,-7.99 10.93,-11.63 22.83,-20.27 57.4,-31.92 86.77,-27.44 2.43,0.3 5.27,0.86 8.6,1.57 18.65,4.66 31.11,13.63 37.97,25.3 7.37,12.37 9.45,28.39 6.78,45.76 -0.29,2.41 -0.91,5.55 -1.86,9.35 -12.03,48.16 -23.98,96.33 -35.88,144.5 -2.93,28.72 47.33,31.7 54.57,-0.8l32.64 -131.22c0.92,-4.07 1.81,-8.65 2.54,-13.93 4.43,-29.26 0.34,-57.26 -13.37,-80.48 -14.12,-23.91 -37.46,-41.78 -70.97,-49.79 -3.52,-0.86 -7.84,-1.69 -13.12,-2.5 -44.56,-6.73 -95.88,10.42 -129.37,40.01 -6.96,6.06 -13.05,12.58 -18.24,19.55 -5.4,7.2 -9.98,14.95 -13.56,23.2l0 0.15 -1.12 2.62c-5.21,17.35 -12.51,45.87 -19.88,74.58 -7.07,27.3 -9.64,36.87 -14.98,54.45 -0.41,33.13 49.3,29.99 55.09,-2.1z"/>
   </g>
   <g>
    <g>
     <path class="fil15" d="M1635.09 933.62c-132.88,0 -236.65,-65.91 -240.88,-190.85l160.14 0c4.51,47.38 34.41,70.42 76.5,70.42 42.08,0 72.01,-21.98 72.01,-58.24 0,-114.36 -308.65,-52.68 -307.07,-271.86 0,-117 95.82,-182.12 225.27,-182.12 129.44,0 225.26,66.98 231.35,184.77l-162.78 0c-2.65,-39.7 -30.97,-63.27 -71.21,-64.06 -35.99,-0.79 -63.27,17.47 -63.27,56.39 0,107.21 305.21,59.03 305.21,265.77 0,103.77 -81,190.06 -225.27,190.06l0 0 0 -0.27z"/>
     <path class="fil15" d="M1952.75 309.98l150.35 0 0 369.54c0,73.07 35.99,115.14 107.21,115.14 71.21,0 109.06,-42.34 109.06,-115.14l0 -369.54 150.34 0 0 368.74c0,170.74 -119.64,255.18 -262.07,255.18 -142.42,0 -255.18,-84.44 -255.18,-255.18l0 -368.74 0.01 0 0.26 0z"/>
     <path class="fil15" d="M3145.53 618.63c0,182.92 -126.53,308.65 -323.75,308.65l-231.35 0 0 -617.3 231.36 0c196.95,0 323.75,124.94 323.75,308.65l-0.01 0zm-333.27 178.67c113.57,0 180.27,-65.12 180.27,-178.67 0,-113.55 -66.97,-180.27 -180.27,-180.27l-71.2 0 0 358.95 71.2 -0.01z"/>
     <path class="fil16" d="M3549.48 309.98l0 501.36 196.95 0 0 116.21 -347.57 0 0 -617.57c0,0 150.35,0 150.35,0l0.27 0z"/>
     <path class="fil16" d="M3830.86 309.98l150.35 0 0 617.57 -150.35 0c0,0 0,-617.57 0,-617.57z"/>
     <path class="fil16" d="M4086.84 309.98l402.08 0 0 120.45 -251.73 -0.01 0 130.24 188.2 0 0 117.01 -188.2 -0.01 0 249.89 -150.35 0c0,0 0,-617.57 0,-617.57z"/>
     <polygon class="fil16" points="4960.64,430.42 4732.73,430.42 4732.73,555.36 4934.16,555.36 4934.16,671.56 4732.73,671.57 4732.73,807.1 4960.64,807.09 4960.64,927.54 4582.36,927.54 4582.36,309.71 4960.64,309.71 4960.64,430.16 4960.64,430.16 "/>
    </g>
    <g>
     <path class="fil15" d="M591.08 0c-326.38,0 -591.09,281.65 -591.09,629.21 0,176.03 68.03,335.11 177.35,449.21 38.38,-74.39 96.36,-137.12 167.03,-181.59 -60.88,-69.1 -98.47,-163.59 -98.47,-267.88 0,-211.24 154.85,-383.31 345.18,-383.31 190.33,0 345.18,171.79 345.18,383.31 0,104.02 -37.58,198.53 -98.47,267.88 70.68,44.47 128.38,106.94 167.03,181.59 109.59,-114.36 177.35,-273.18 177.35,-449.21 -0.26,-347.56 -264.7,-629.21 -591.35,-629.21l0 0 0.26 0zm-466.68 671.3c-23.29,0 -42.09,-18.8 -42.09,-42.08 0,-23.3 18.81,-42.09 42.09,-42.09 23.3,0 42.09,18.8 42.09,42.09 0,23.29 -18.8,42.08 -42.09,42.08zm124.15 -342.53c-23.29,0 -42.09,-18.8 -42.09,-42.08 0,-23.3 18.81,-42.09 42.09,-42.09 23.3,0 42.09,18.8 42.09,42.09 0,23.29 -18.8,42.08 -42.09,42.08zm342.53 -164.11c-23.29,0 -42.09,-18.81 -42.09,-42.09 0,-23.3 18.81,-42.09 42.09,-42.09 23.3,0 42.09,18.8 42.09,42.09 0,23.29 -18.8,42.09 -42.09,42.09zm342.27 164.11c-23.29,0 -42.09,-18.8 -42.09,-42.08 0,-23.3 18.81,-42.09 42.09,-42.09 23.3,0 42.09,18.8 42.09,42.09 0,23.29 -18.8,42.08 -42.09,42.08zm124.15 342.53c-23.29,0 -42.09,-18.8 -42.09,-42.08 0,-23.3 18.81,-42.09 42.09,-42.09 23.3,0 42.09,18.8 42.09,42.09 0,23.29 -18.8,42.08 -42.09,42.08z"/>
     <path class="fil16" d="M590.03 844.69c115.95,0 210.44,-104.83 210.44,-233.48 0,-128.64 -94.5,-233.47 -210.44,-233.47 -115.93,0 -210.44,104.83 -210.44,233.47 0,128.65 94.51,233.48 210.44,233.48zm1.05 100.06c-143.21,0 -266.03,90 -314.21,216.53 3.97,2.91 8.47,5.82 12.71,8.48 48.44,30.7 100.85,54 156.97,69.09 18.27,-62.74 75.98,-109.06 144.8,-109.06 68.83,0 126.53,46.32 144.8,109.06 55.86,-15.09 108.53,-38.37 156.98,-69.09 4.23,-2.92 8.47,-5.83 12.44,-8.48 -48.44,-126.53 -170.74,-216.53 -314.21,-216.53l-0.28 0z"/>
    </g>
   </g>
  </g>
 </g>
</svg>
