<?xml version="1.0" encoding="UTF-8"?>
<svg id="Layer_2" data-name="Layer 2" xmlns="http://www.w3.org/2000/svg" viewBox="0 0 291.66 246.42">
  <defs>
    <style>
      .cls-1 {
        fill: #e46c28;
      }
    </style>
  </defs>
  <g id="Layer_1" data-name="Layer 1">
    <g>
      <path class="cls-1" d="M0,246.42L120.28,96.81l-.39,49.64L4.32,0h87.66l73.9,95.4-37.34.35L201.26,0h84.12l-115.56,143.63v-49.28l121.85,152.08h-89.62l-75.08-100.33h35.77l-73.9,100.33H0Z"/>
      <g>
        <circle class="cls-1" cx="145.83" cy="123.21" r="73.9"/>
        <path d="M145.83,203.56c-44.31,0-80.35-36.05-80.35-80.35s36.05-80.35,80.35-80.35,80.35,36.05,80.35,80.35-36.05,80.35-80.35,80.35ZM145.83,50.33c-40.19,0-72.89,32.7-72.89,72.89s32.7,72.89,72.89,72.89,72.89-32.7,72.89-72.89-32.7-72.89-72.89-72.89Z"/>
        <path d="M119.53,73.63c2.28.82,4.64,2,6.84,3.14.61.32,1.73,1.19,2.46,1.29,1.92.25,4.24-1.33,6.08-2.01,5.76-2.11,12.53-.9,18.57-.96,2.76.69,5.32,1.83,7.9,2.9,1.11.46,2,.29,3.11-.27,1.52-.78,3.14-1.87,4.62-2.6,3.27-1.61,6.14-2.21,9.67-3.03,3.36-.78,5.99-2.28,8.72.66,3.04,3.27,5.2,7.16,5.92,11.65.48,2.99-.49,6.74-1.49,9.58-.48,1.36-1.38,2-1.94,3.18-.31.64-.41,1.23,0,1.84.63.96,1.64,1.95,2.36,2.87,7.33,9.41,11.98,17.91,10.8,30.4-.81,8.57-4.34,15.19-10.05,21.41-6.47,7.05-14.33,12.78-21.18,19.49-3.41,3.34-5.72,6.35-10.2,8.39-8.97,4.09-19,5.01-28.35,1.51-7.35-2.75-12.29-9.08-18.11-14.32-5.01-4.51-10.26-8.71-14.86-13.67-6.57-7.09-10.55-12.86-11.8-22.81-1.44-11.48,3.96-23.13,11.57-31.4.41-.44,2.02-1.84,2.09-2.28.1-.58-.79-1.78-1.09-2.35-3.33-6.57-4.33-13-.39-19.58.28-.47.62-1.01.93-1.49.82-1.26,1.75-2.24,2.79-3.35,1.28-1.38,2.45-1.37,4.32-1.19.88.08,1.72.5,2.54.72,2.73.73,5.52,1.34,8.18,2.29ZM119.52,83.41c-1.21-.88-2.65-1.42-3.94-2.16-1.59-.92-4.16-2.84-5.89-3.23-1.08-.24-1.19.43-1.52,1.22-1.19,2.8-1.07,6.31-.53,9.3.08.46.01.73.28,1.21.68,1.2,3.58,2.02,4.88,1.89,2.13-.2,3.78-1.54,5.38-2.79,1.05-.82,2.01-1.74,3.08-2.53.16-.3.22-.57.11-.9-.05-.16-.72-1.01-.88-1.17-.26-.27-.67-.63-.97-.84ZM183.18,78.38c-.18-.18-.59-.32-.85-.31-1.68.02-4.04,1.83-5.51,2.68-1.81,1.05-3.83,2.02-5.44,3.37-.17.15-1.35,1.36-1.37,1.46-.22.98.46,1.01,1.04,1.42,1.2.84,2.35,1.69,3.53,2.61.83.65,2.84,2.31,3.79,2.56,1.17.3,3.36-.5,4.39-1.08.7-.4,1.48-1.14,1.57-1.99.24-2.2.05-7.47-.59-9.56-.07-.23-.42-1.01-.56-1.16ZM162.34,84.52c-4.37-1.75-9.42-2.92-14.15-2.26-.66.09-1.08.94-.86,1.55.01.04.41.52.48.59,1.18,1.1,5.28,1.71,7.04,2.26,3.44,1.08,10.2,4.72,12.55,7.55.13.15.41.45.38.65-.44.34-.7.22-1.17.05-.55-.2-1.07-.68-1.56-.96-1.56-.91-3.28-1.88-5.03-2.69-3.09-1.43-8.01-3.38-11.27-1.78-.11.05-.21.01-.34.1-.29.18-.45.84-.44,1.17,0,.17.16.67.28.79.08.08.21.07.28.12.89.72,2.96,1.21,4.15,1.65,3.87,1.43,8.85,3.53,11.55,6.89.75.93,1.38,2.28,1.12,3.51-.06.27-.44.41-.69.41-1.84-.02-4.44-2.14-6.12-3-2.48-1.27-5.24-1.94-7.95-2.28-.67-.09-1.35.13-1.44.87-.22,1.8-.17,3.73-.37,5.59-.34,3.11-1.08,6.3-1.66,9.42-.18.99-.29,2.88-.73,3.6-.05.08,0,.22-.09.25-.61.17-.44-.12-.53-.4-.81-2.51-1.3-5.11-1.83-7.66-.49-2.36-1.09-4.73-1.31-7.16-.1-1.16.02-2.58-.19-3.72-.02-.13-.08-.2-.18-.29-.41-.36-.83-.36-1.35-.32-3.24.24-6.13,1.1-8.78,2.59-1.38.77-2.65,1.7-4.09,2.24-.11.04-.81.22-.85.18-.76-1.74,0-3.4,1.11-4.76,2.43-2.95,7.22-4.71,10.62-5.96.98-.36,2.44-.71,3.3-1.12.36-.17.84-.76.94-1.15.19-.78-.39-1.15-1.03-1.44-3.68-1.63-10.73,1.47-14.09,3.25-.77.41-1.82,1.21-2.61,1.51-.15.05-.77.22-.91.2-.37-.04-.11-.53-.02-.68.86-1.41,5.21-4.05,6.65-4.81,3.66-1.94,6.45-2.4,10.29-3.56.45-.13,1.82-.66,2.11-.99.44-.5.51-1.29.14-1.85-.22-.32-1.17-.39-1.58-.41-5.48-.32-9.99.82-14.83,3.23-8.46,4.21-15.91,11.44-21.35,19.22-2.16,3.09-4.35,6.31-6.05,9.67-6.63,13.1.4,28.23,10.22,37.26.74.68,2.28,2.11,3.06,2.49.4.19.85.43,1.31.34.02,0,.25-.23.25-.25.1-.5-.16-1.47-.19-2.02-.06-1.26.04-2.55.21-3.79.13-.95.67-1.9.03-2.77s-2.71-2.17-3.64-3.06c-7.96-7.69-12.14-20.6-3.68-29.55,5.49-5.81,12.92-6.29,20.09-3.34.62.26,2.13,1.2,2.69,1.09.16-.03.27-.06.39-.17.11-.1.53-.78.64-.97.69-1.19,1.7-4.05,2.43-4.88.2-.22.7-.59.99-.36s-.04,1.84-.06,2.29c-.15,4.04-.14,8.06.57,12,.76,4.23,1.98,8.21,3.33,12.22.09.28.38,1.24.39,1.47,0,.2-.47,1.6-.57,1.93-.12.38-.39.9-.52,1.36-.84,3.03-.75,6.04,2.13,7.86,2.21,1.4,7.2,1.55,9.69.89,2.87-.75,5.11-4.26,4.33-7.18-.18-.66-.9-1.76-1.11-2.46-.65-2.17.14-2.64.87-4.4,3.19-7.67,3.65-15.95,3.22-24.33-.03-.64-.19-1.58.7-1.54.27.01.65.28.83.49.47.55,1.05,2.22,1.47,2.97.37.67,1.23,2.15,1.72,2.68.27.29.49.35.88.24.64-.17,1.8-.9,2.54-1.18,4.91-1.89,11.17-2.25,15.82.5,8.26,4.89,9.11,14.46,6.46,22.99-1.21,3.88-5.63,9.64-8.77,12.26-.36.31-1.02.44-.99,1.07.26.74.59,1.48.73,2.26.09.47.2,1.29.21,1.75.02,1.18-.34,2.36-.37,3.54.45.73,1.29-.19,1.74-.51,4.13-2.95,8.13-8.08,10.48-12.58,5.07-9.71,5.73-19.67.09-29.14-4.19-7.03-9.85-15.05-16.52-20.08-3.65-2.75-7.43-5.53-11.64-7.22ZM122.89,117.09c-4.09-1.4-11.62-1.91-13.5,3.05-1.51,3.97,1.16,7.01,3.93,9.38,3.3,2.82,5.53,3.52,9.81,4.13.48.07,1.15.37,1.1.95-.05.62-.9.47-1.26.52-1.6.19-3.27.17-4.83.38-1.2.16-1.1,1.06-.79,1.96.73,2.1,2.5,4.04,4.38,5.32.21.14.67.29.79.37.05.03.47.47.48.5.15.59-.69.45-1.01.54-.87.22-1.17,1.34-.45,1.85s2.4.84,2.9,1.66c.58.97-.74.66-1.28.72-.92.1-1.96.31-2.84.61-.38.13-2.13.83-2.22,1.13-.07.23,0,.49.24.56l9.05,2.31c.44.04.53.57.38.91-.11.25-1.89.21-2.19.25-2.29.29-5.03,1.07-6.86,2.42-.34.25-.44.65-.2,1.02.73-.01,1.51.15,2.22.18,2.83.13,6.19-.3,8.93.19.15.03,1.39.5,1.43.57.09.14,0,.52-.18.59l-8.76,3.16c-.23.95.96.99,1.66,1.06,4.76.51,7.73.29,12.02-1.65,2.97-1.35,6.44-2.96,7.73-6.23.36-.92.72-2.19.19-3.1-.43-.74-4.44-1.94-5.45-2.39-4.21-1.9-6.16-5.89-5.51-10.48.43-3.1,2.4-5.03,1.66-8.47-.87-4.08-3.03-7.58-5.8-10.62-1.38-1.52-3.87-2.71-5.75-3.36ZM180.1,117.29c-4.18-2.22-11.56-.57-15.2,1.97-3.53,2.47-7.7,9.47-7.66,13.76.02,1.92,1.09,3.7,1.56,5.51,1.32,5.04-.87,9.81-5.68,11.67-1.49.58-3.07.87-4.42,1.55-.06.03-.19,0-.26.04-.2.13-.73.81-.77,1.05-.33,2.07.58,3.98,2.07,5.31,5.41,4.82,11.77,6.08,18.99,5.24.77-.09,1.43-.69.67-1.3-1.74-.49-3.41-1.16-5.1-1.77-.88-.32-1.97-.61-2.86-.97-.42-.17-.59-.29-.11-.59,2.08-1.3,7.23-1,9.73-1.04.41,0,2.25.07,2.45-.11.3-.26-.2-.83-.42-1.01-1.63-1.29-4.92-1.99-6.98-2.4-.51-.1-1.24.05-1.52-.53.07-.49,1.32-.94,1.75-1.05,2.18-.57,4.47-.91,6.65-1.54.19-.05.59-.15.72-.21.47-.2.23-.62-.04-.89-.72-.69-4.15-1.44-5.22-1.58-.21-.03-.96.05-1.06-.11-.35-.55,1.23-1.28,1.58-1.49.42-.25,1.22-.54,1.54-.76.53-.36.45-.96.15-1.46-.18-.3-1.13-.37-1.49-.54-.07-.03-.18-.02-.12-.16.06-.13,1.78-1.79,2.08-2.06s.96-.63,1.27-.92c.71-.66,2.27-2.72,2.41-3.64.09-.58.09-1.24-.47-1.57-.5-.29-2.74-.38-3.48-.43s-3.11.22-2.99-1.03c.02-.2.2-.37.37-.47,4.21-.63,7.92-1.95,11-4.87,2.75-2.6,5.69-6.2,2.82-9.94-.37-.48-1.46-1.42-1.99-1.7ZM151.35,164.46c-6.44-2.62-10.19-.61-15.68,2.37-1.58.86-3.32,1.68-4.72,2.84-.17.14-1.26,1.21-1.3,1.29-.32.63.02,1.24.4,1.73,3.7,4.79,12.75,6.64,18.49,5.86,4.3-.59,9.97-2.5,12.71-6.02.91-1.17,1.06-1.61-.09-2.68-1.94-1.81-7.28-4.37-9.81-5.4Z"/>
      </g>
    </g>
  </g>
</svg>